<svg xmlns="http://www.w3.org/2000/svg" width="4460" height="3580" viewBox="0 0 4460 3580"><defs><linearGradient id="b" x1="72.083%" x2="72.083%" y1="64.5%" y2="95.333%"><stop offset="0%" stop-color="#FA3" stop-opacity="0"/><stop offset="100%" stop-color="#FA3" stop-opacity=".5"/></linearGradient><linearGradient id="c" x1="27.917%" x2="27.917%" y1="64.5%" y2="95.333%"><stop offset="0%" stop-color="#FA3" stop-opacity="0"/><stop offset="100%" stop-color="#FA3" stop-opacity=".5"/></linearGradient><linearGradient id="d" x1="50%" x2="50%" y1="69.667%" y2="100.5%"><stop offset="0%" stop-color="#FA3" stop-opacity="0"/><stop offset="100%" stop-color="#FA3" stop-opacity=".5"/></linearGradient><linearGradient id="e" x1="0%" x2="100.051%" y1="49.989%" y2="49.989%"><stop offset="0%" stop-color="#F7882B"/><stop offset="100%" stop-color="#E52"/></linearGradient><radialGradient id="a" cx="49.5%" cy="70.25%" r="78.634%" fx="49.5%" fy="70.25%" gradientTransform="matrix(.8171 0 0 1 .09 0)"><stop offset="0%" stop-color="#D18"/><stop offset="100%" stop-color="#300"/></radialGradient></defs><g fill="none" fill-rule="evenodd"><g transform="translate(-956 -3938)"><rect width="5576" height="4556" x="230" y="3078" fill="#300" fill-rule="nonzero"/><rect width="5576" height="4556" x="230" y="3078" fill="url(#a)" fill-rule="nonzero"/><g fill-rule="nonzero"><ellipse cx="2091.329" cy="3769.518" fill="url(#b)" rx="2091.329" ry="3416.482"/><ellipse cx="3938.671" cy="3769.518" fill="url(#c)" rx="2091.329" ry="3416.482"/><ellipse cx="3015" cy="3416.482" fill="url(#d)" rx="2091.329" ry="3416.482"/></g></g><path fill="url(#e)" fill-rule="nonzero" d="M4957.44975,165.13011 C4940.16,482.25011 4892.8,797.45011 4816,1104.65011 C4738.88,1411.85011 4632.32,1710.73011 4498.24,1996.17011 C4364.16,2281.61011 4202.56,2553.29011 4017.28,2806.73011 C3831.68,3060.17011 3622.4,3295.05011 3392.96,3507.53011 C3163.52,3720.01011 2914.24,3910.09011 2649.92,4074.57011 C2385.28,4239.05011 2105.6,4377.61011 1815.68,4487.69011 C1525.76,4597.77011 1225.6,4679.69011 921.28,4731.85011 C616.32,4784.01011 307.52,4806.41011 1.8189894e-12,4800.01011 C307.52,4793.29011 613.76,4757.45011 913.28,4692.49011 C1212.8,4627.85011 1505.28,4534.09011 1785.28,4413.45011 C2065.6,4292.81011 2333.44,4145.29011 2584,3974.09011 C2834.88,3802.89011 3068.8,3607.69011 3281.28,3392.65011 C3494.08,3177.61011 3685.76,2942.41011 3852.8,2692.17011 C4020.16,2441.61011 4162.88,2175.69011 4278.4,1898.89011 C4393.92,1622.09011 4482.56,1335.05011 4542.72,1042.57011 C4602.88,750.09011 4634.24,452.49011 4637.44,154.89011 C4638.4,66.5701099 4711.68,-0.949890062 4800,7.27595761e-12 C4888.32,0.970109938 4958.4,69.7701099 4957.44975,158.41011 C4957.44975,160.65011 4957.44975,162.57011 4957.12,164.81011 L4957.44975,165.13011 Z" transform="rotate(130 4147.217 5856.502)"/></g></svg>