<svg xmlns="http://www.w3.org/2000/svg" width="3046" height="2310" viewBox="0 0 3046 2310"><g fill="none" fill-rule="evenodd" transform="translate(-406 -4314)"><rect width="4000" height="4000" x="40" y="4040" fill="#002" fill-rule="nonzero"/><line x2="4080" y1="4000" y2="8080" stroke="#026" stroke-width="85"/><g stroke="#002163" stroke-width="80" transform="translate(0 125)"><line x2="4080" y1="4000" y2="8080"/><line x2="4080" y1="3750" y2="7830"/></g><g stroke="#002060" stroke-width="75" transform="translate(0 250)"><line x2="4080" y1="4000" y2="8080"/><line x2="4080" y1="3500" y2="7580"/><line x2="4080" y2="4080"/></g><g stroke="#001F5C" stroke-width="70" transform="translate(0 375)"><line x2="4080" y1="4000" y2="8080"/><line x2="4080" y2="4080"/><line x2="4080" y1="3250" y2="7330"/></g><g stroke="#001E59" stroke-width="65" transform="translate(0 500)"><line x2="4080" y1="4000" y2="8080"/><line x2="4080" y1="3000" y2="7080"/><line x2="4080" y2="4080"/></g><g stroke="#001D56" stroke-width="60" transform="translate(0 625)"><line x2="4080" y1="4000" y2="8080"/><line x2="4080" y1="2750" y2="6830"/><line x2="4080" y2="4080"/></g><g stroke="#001C53" stroke-width="55" transform="translate(0 750)"><line x2="4080" y1="4000" y2="8080"/><line x2="4080" y1="2500" y2="6580"/><line x2="4080" y2="4080"/></g><g stroke="#001B4F" stroke-width="50" transform="translate(0 875)"><line x2="4080" y1="4000" y2="8080"/><line x2="4080" y2="4080"/><line x2="4080" y1="2250" y2="6330"/></g><g stroke="#001A4C" stroke-width="45" transform="translate(0 1000)"><line x2="4080" y1="4000" y2="8080"/><line x2="4080" y2="4080"/><line x2="4080" y1="2000" y2="6080"/></g><g stroke="#001949" stroke-width="40" transform="translate(0 1125)"><line x2="4080" y1="4000" y2="8080"/><line x2="4080" y1="1750" y2="5830"/><line x2="4080" y2="4080"/></g><g stroke="#001846" stroke-width="35" transform="translate(0 1250)"><line x2="4080" y1="4000" y2="8080"/><line x2="4080" y2="4080"/><line x2="4080" y1="1500" y2="5580"/></g><g stroke="#001743" stroke-width="30" transform="translate(0 1375)"><line x2="4080" y1="4000" y2="8080"/><line x2="4080" y2="4080"/><line x2="4080" y1="1250" y2="5330"/></g><g stroke="#00163F" stroke-width="25" transform="translate(0 1500)"><line x2="4080" y1="4000" y2="8080"/><line x2="4080" y1="5000" y2="9080"/><line x2="4080" y1="1000" y2="5080"/><line x2="4080" y2="4080"/></g><g stroke="#00153C" stroke-width="20" transform="translate(0 1625)"><line x2="4080" y1="4750" y2="8830"/><line x2="4080" y1="4000" y2="8080"/><line x2="4080" y1="750" y2="4830"/><line x2="4080" y2="4080"/></g><g stroke="#001439" stroke-width="15" transform="translate(0 1750)"><line x2="4080" y1="4000" y2="8080"/><line x2="4080" y1="4500" y2="8580"/><line x2="4080" y2="4080"/><line x2="4080" y1="500" y2="4580"/></g><g stroke="#001336" stroke-width="10" transform="translate(0 1875)"><line x2="4080" y1="4000" y2="8080"/><line x2="4080" y1="4250" y2="8330"/><line x2="4080" y2="4080"/><line x2="4080" y1="250" y2="4330"/></g><g stroke="#013" stroke-width="5" transform="translate(0 2000)"><line x2="4080" y1="4000" y2="8080"/><line x2="4080" y2="4080"/></g></g></svg>