<svg xmlns="http://www.w3.org/2000/svg" width="3200" height="5024" viewBox="0 0 3200 5024"><defs><linearGradient id="n" x1="0%" x2="100.051%" y1="49.989%" y2="49.989%"><stop offset="0%" stop-color="#F7882B"/><stop offset="100%" stop-color="#E52"/></linearGradient><linearGradient id="o" x1="0%" x2="100.051%" y1="49.989%" y2="49.989%"><stop offset="0%" stop-color="#F7882B"/><stop offset="100%" stop-color="#E52"/></linearGradient><linearGradient id="p" x1="0%" x2="100.051%" y1="49.989%" y2="49.989%"><stop offset="0%" stop-color="#F7882B"/><stop offset="100%" stop-color="#E52"/></linearGradient><linearGradient id="q" x1="0%" x2="100.051%" y1="49.989%" y2="49.989%"><stop offset="0%" stop-color="#F7882B"/><stop offset="100%" stop-color="#E52"/></linearGradient><linearGradient id="r" x1="0%" x2="100.051%" y1="49.989%" y2="49.989%"><stop offset="0%" stop-color="#F7882B"/><stop offset="100%" stop-color="#E52"/></linearGradient><linearGradient id="s" x1="0%" x2="100.051%" y1="49.989%" y2="49.989%"><stop offset="0%" stop-color="#F7882B"/><stop offset="100%" stop-color="#E52"/></linearGradient><linearGradient id="t" x1="0%" x2="100.051%" y1="49.989%" y2="49.989%"><stop offset="0%" stop-color="#F7882B"/><stop offset="100%" stop-color="#E52"/></linearGradient><linearGradient id="u" x1="0%" x2="100.051%" y1="49.989%" y2="49.989%"><stop offset="0%" stop-color="#F7882B"/><stop offset="100%" stop-color="#E52"/></linearGradient><linearGradient id="v" x1="0%" x2="100.051%" y1="49.989%" y2="49.989%"><stop offset="0%" stop-color="#F7882B"/><stop offset="100%" stop-color="#E52"/></linearGradient><linearGradient id="w" x1="0%" x2="100.051%" y1="49.989%" y2="49.989%"><stop offset="0%" stop-color="#F7882B"/><stop offset="100%" stop-color="#E52"/></linearGradient><linearGradient id="x" x1="0%" x2="100.051%" y1="49.989%" y2="49.989%"><stop offset="0%" stop-color="#F7882B"/><stop offset="100%" stop-color="#E52"/></linearGradient><linearGradient id="y" x1="0%" x2="100.051%" y1="49.989%" y2="49.989%"><stop offset="0%" stop-color="#F7882B"/><stop offset="100%" stop-color="#E52"/></linearGradient><linearGradient id="z" x1="0%" x2="100.051%" y1="49.989%" y2="49.989%"><stop offset="0%" stop-color="#F7882B"/><stop offset="100%" stop-color="#E52"/></linearGradient><linearGradient id="A" x1="0%" x2="100.051%" y1="49.989%" y2="49.989%"><stop offset="0%" stop-color="#F7882B"/><stop offset="100%" stop-color="#E52"/></linearGradient><linearGradient id="B" x1="0%" x2="100.051%" y1="49.989%" y2="49.989%"><stop offset="0%" stop-color="#F7882B"/><stop offset="100%" stop-color="#E52"/></linearGradient><radialGradient id="a" cx="0%" cy="0%" r="0%" fx="0%" fy="0%"><stop offset="0%" stop-color="#FB3"/><stop offset="100%" stop-color="#E52"/></radialGradient><radialGradient id="b" cx="0%" cy="0%" r="0%" fx="0%" fy="0%"><stop offset="0%" stop-color="#FB3"/><stop offset="100%" stop-color="#E52"/></radialGradient><radialGradient id="c" cx="0%" cy="0%" r="0%" fx="0%" fy="0%"><stop offset="0%" stop-color="#FB3"/><stop offset="100%" stop-color="#E52"/></radialGradient><radialGradient id="d" cx="0%" cy="0%" r="0%" fx="0%" fy="0%"><stop offset="0%" stop-color="#FB3"/><stop offset="100%" stop-color="#E52"/></radialGradient><radialGradient id="e" cx="0%" cy="0%" r="0%" fx="0%" fy="0%"><stop offset="0%" stop-color="#FB3"/><stop offset="100%" stop-color="#E52"/></radialGradient><radialGradient id="f" cx="0%" cy="0%" r="0%" fx="0%" fy="0%"><stop offset="0%" stop-color="#FB3"/><stop offset="100%" stop-color="#E52"/></radialGradient><radialGradient id="g" cx="0%" cy="0%" r="0%" fx="0%" fy="0%"><stop offset="0%" stop-color="#FB3"/><stop offset="100%" stop-color="#E52"/></radialGradient><radialGradient id="h" cx="0%" cy="0%" r="0%" fx="0%" fy="0%"><stop offset="0%" stop-color="#FB3"/><stop offset="100%" stop-color="#E52"/></radialGradient><radialGradient id="i" cx="0%" cy="0%" r="0%" fx="0%" fy="0%"><stop offset="0%" stop-color="#FB3"/><stop offset="100%" stop-color="#E52"/></radialGradient><radialGradient id="j" cx="0%" cy="0%" r="0%" fx="0%" fy="0%"><stop offset="0%" stop-color="#FB3"/><stop offset="100%" stop-color="#E52"/></radialGradient><radialGradient id="k" cx="0%" cy="0%" r="0%" fx="0%" fy="0%"><stop offset="0%" stop-color="#FB3"/><stop offset="100%" stop-color="#E52"/></radialGradient><radialGradient id="l" cx="0%" cy="0%" r="0%" fx="0%" fy="0%"><stop offset="0%" stop-color="#FB3"/><stop offset="100%" stop-color="#E52"/></radialGradient><radialGradient id="m" cx="0%" cy="0%" r="0%" fx="0%" fy="0%"><stop offset="0%" stop-color="#FB3"/><stop offset="100%" stop-color="#E52"/></radialGradient></defs><g fill="none" fill-rule="evenodd" transform="translate(-2497.02 -1683.987)"><rect width="2137" height="1602" x="4205.02" y="4298.987" fill="#E52" fill-rule="nonzero"/><g fill-rule="nonzero"><ellipse cx="4205.355" cy="4298.672" fill="url(#a)" rx="3204.745" ry="3204.774"/><g opacity=".5" transform="translate(2068.859 2162.157)"><ellipse cx="2136.496" cy="2136.516" fill="url(#b)" rx="2136.496" ry="2136.516"/><ellipse cx="2136.496" cy="2136.516" fill="url(#c)" rx="1922.847" ry="1922.864"/><ellipse cx="2136.496" cy="2136.516" fill="url(#d)" rx="1816.022" ry="1816.038"/><ellipse cx="2136.496" cy="2136.516" fill="url(#e)" rx="1763.678" ry="1763.694"/><ellipse cx="2136.496" cy="2136.516" fill="url(#f)" rx="1548.96" ry="1548.974"/><ellipse cx="2136.496" cy="2136.516" fill="url(#g)" rx="1335.31" ry="1335.322"/><ellipse cx="2136.496" cy="2136.516" fill="url(#h)" rx="1255.192" ry="1255.203"/><ellipse cx="2136.496" cy="2136.516" fill="url(#i)" rx="961.423" ry="961.432"/><ellipse cx="2136.496" cy="2136.516" fill="url(#j)" rx="801.186" ry="801.193"/><ellipse cx="2136.496" cy="2136.516" fill="url(#k)" rx="534.124" ry="534.129"/><ellipse cx="2136.496" cy="2136.516" fill="url(#l)" rx="405.934" ry="405.938"/><ellipse cx="2136.496" cy="2136.516" fill="url(#m)" rx="267.062" ry="267.064"/></g><g transform="rotate(10 -11082.284 21839.348)"><path fill="url(#n)" d="M198.592011,6.61505767 C197.899395,19.3187801 196.002186,31.945588 192.925632,44.2519186 C189.836258,56.5582491 185.567538,68.5312832 180.196386,79.9659153 C174.825233,91.4005474 168.351649,102.283959 160.92946,112.436681 C153.494453,122.589404 145.11084,131.998619 135.919633,140.510498 C126.728425,149.022376 116.74244,156.636918 106.153964,163.225933 C95.5526683,169.814947 84.3488808,175.365615 72.7348859,179.775384 C61.1208911,184.185152 49.096689,187.46684 36.9058401,189.556353 C24.6893532,191.645865 12.3190387,192.543202 -3.63797881e-12,192.28682 C12.3190387,192.017619 24.5868014,190.58188 36.5853656,187.979604 C48.5839298,185.390147 60.3004765,181.634152 71.5170829,176.801354 C82.7465084,171.968555 93.4759937,166.058953 103.513254,159.200737 C113.563334,152.342522 122.934007,144.522874 131.445809,135.908443 C139.97043,127.294012 147.648998,117.871977 154.340505,107.847445 C161.044831,97.8100946 166.762096,87.1574272 171.389747,76.0689107 C176.017398,64.9803941 179.568256,53.4816665 181.978224,41.7650143 C184.388192,30.0483621 185.644452,18.1266044 185.772641,6.20484665 C185.811098,2.66677662 188.746644,-0.0380522821 192.284683,1.09139364e-11 C195.822721,0.0388622837 198.630077,2.79496756 198.592011,6.34585669 C198.592011,6.43559035 198.592011,6.51250491 198.578801,6.60223857 L198.592011,6.61505767 Z" transform="rotate(60 -1190.93 1758.22)"/><path fill="url(#o)" d="M330.986684,11.0250961 C329.832326,32.1979669 326.670311,53.2426467 321.542719,73.7531976 C316.393763,94.2637485 309.279229,114.218805 300.327309,133.276526 C291.375389,152.334246 280.586082,170.473264 268.215767,187.394469 C255.824088,204.315673 241.851401,219.997699 226.532721,234.184163 C211.214041,248.370627 194.570734,261.061531 176.923273,272.043221 C159.254447,283.024912 140.581468,292.276025 121.22481,299.625639 C101.868152,306.975253 81.8278149,312.444734 61.5097335,315.927254 C41.1489221,319.409775 20.5317311,320.905336 7.27595761e-12,320.478033 C20.5317311,320.029365 40.9780024,317.636467 60.9756093,313.29934 C80.9732163,308.983578 100.500794,302.723587 119.195138,294.668923 C137.910847,286.614259 155.793323,276.764921 172.52209,265.334562 C189.272223,253.904203 204.890012,240.871457 219.076348,226.514072 C233.28405,212.156686 246.081664,196.453295 257.234175,179.745742 C268.408052,163.016824 277.936826,145.262379 285.649578,126.781518 C293.362331,108.300657 299.280426,89.1361108 303.297039,69.6083571 C307.313653,50.0806034 309.407419,30.2110073 309.621069,10.3414111 C309.685164,4.4446277 314.577741,-0.0634204703 320.474471,9.09494702e-13 C326.371201,0.0647704729 331.050129,4.65827927 330.986684,10.5764278 C330.986684,10.7259839 330.986684,10.8541749 330.964669,11.003731 L330.986684,11.0250961 Z" transform="rotate(10 -10454.875 6254.197)"/><path fill="url(#p)" d="M413.733355,13.7813701 C412.290407,40.2474586 408.337888,66.5533084 401.928399,92.191497 C395.492203,117.829686 386.599037,142.773507 375.409137,166.595657 C364.219236,190.417807 350.732602,213.09158 335.269709,234.243086 C319.78011,255.394591 302.314251,274.997123 283.165901,292.730204 C264.017552,310.463284 243.213417,326.326913 221.154091,340.054027 C199.068059,353.78114 175.726835,365.345032 151.531012,374.532049 C127.33519,383.719067 102.284769,390.555917 76.8871668,394.909068 C51.4361526,399.262219 25.6646639,401.13167 3.63797881e-12,400.597541 C25.6646639,400.036706 51.2225029,397.045584 76.2195117,391.624175 C101.21652,386.229473 125.625993,378.404484 148.993923,368.336154 C172.388559,358.267823 194.741654,345.956152 215.652613,331.668203 C236.590278,317.380254 256.112515,301.089321 273.845435,283.142589 C291.605062,265.195857 307.60208,245.566619 321.542719,224.682178 C335.510065,203.77103 347.421033,181.577973 357.061973,158.476897 C366.702913,135.375821 374.100532,111.420138 379.121299,87.0104464 C384.142066,62.6007543 386.759274,37.7637591 387.026336,12.9267639 C387.106455,5.55578462 393.222176,-0.0792755878 400.593089,0 C407.964002,0.0809630911 413.812661,5.82284909 413.733355,13.2205348 C413.733355,13.4074799 413.733355,13.5677186 413.705836,13.7546637 L413.733355,13.7813701 Z" transform="rotate(40 -2160.91 2228.971)"/><path fill="url(#q)" d="M496.480026,16.5376442 C494.748488,48.2969503 490.005466,79.8639701 482.314079,110.629796 C474.590644,141.395623 463.918844,171.328208 450.490964,199.914788 C437.063084,228.501369 420.879123,255.709896 402.323651,281.091703 C383.736132,306.47351 362.777101,329.996548 339.799082,351.276244 C316.821062,372.555941 291.856101,391.592296 265.384909,408.064832 C238.881671,424.537368 210.872202,438.414038 181.837215,449.438459 C152.802228,460.46288 122.741722,468.667101 92.2646002,473.890882 C61.7233831,479.114662 30.7975967,481.358004 0,480.717049 C30.7975967,480.044047 61.4670035,476.4547 91.463414,469.94901 C121.459825,463.475367 150.751191,454.085381 178.792707,442.003384 C206.866271,429.921388 233.689984,415.147382 258.783135,398.001843 C283.908334,380.856305 307.335018,361.307186 328.614523,339.771107 C349.926075,318.235029 369.122496,294.679943 385.851263,269.618614 C402.612078,244.525237 416.905239,217.893568 428.474368,190.172277 C440.043496,162.450985 448.920639,133.704166 454.945559,104.412536 C460.970479,75.1209052 464.111129,45.3165109 464.431603,15.5121166 C464.527746,6.66694154 471.866611,-0.0951307054 480.711706,0 C489.556802,0.0971557093 496.575193,6.9874189 496.480026,15.8646417 C496.480026,16.0889759 496.480026,16.2812623 496.447003,16.5055964 L496.480026,16.5376442 Z" transform="rotate(-20 5881.044 -1673.951)"/><path fill="url(#r)" d="M661.973369,22.0501922 C659.664651,64.3959338 653.340621,106.485293 643.085438,147.506395 C632.787525,188.527497 618.558459,228.437611 600.654618,266.553051 C582.750778,304.668491 561.172164,340.946528 536.431534,374.788937 C511.648175,408.631346 483.702802,439.995397 453.065442,468.368326 C422.428083,496.741255 389.141468,522.123061 353.846546,544.086443 C318.508894,566.049825 281.162936,584.552051 242.44962,599.251279 C203.736304,613.950507 163.65563,624.889467 123.019467,631.854509 C82.2978441,638.81955 41.0634622,641.810672 3.63797881e-12,640.956066 C41.0634622,640.058729 81.9560047,635.272934 121.951219,626.59868 C161.946433,617.967157 201.001588,605.447174 238.390276,589.337846 C275.821695,573.228517 311.586646,553.529842 345.04418,530.669124 C378.544445,507.808406 409.780024,481.742914 438.152697,453.028143 C466.5681,424.313372 492.163328,392.906591 514.468351,359.491485 C536.816104,326.033649 555.873652,290.524757 571.299157,253.563036 C586.724661,216.601314 598.560852,178.272222 606.594079,139.216714 C614.627305,100.161207 618.814838,60.4220145 619.242138,20.6828222 C619.370328,8.88925539 629.155481,-0.126840941 640.948942,3.63797881e-12 C652.742402,0.129540946 662.100257,9.31655854 661.973369,21.1528556 C661.973369,21.4519678 661.973369,21.7083497 661.929337,22.0074619 L661.973369,22.0501922 Z" transform="rotate(-30 4028.607 -774.927)"/><path fill="url(#s)" d="M827.466711,27.5627403 C824.580814,80.4949172 816.675777,133.106617 803.856798,184.382994 C790.984407,235.659371 773.198074,285.547013 750.818273,333.191314 C728.438473,380.835614 701.465205,426.183161 670.539418,468.486172 C639.560219,510.789183 604.628502,549.994246 566.331803,585.460407 C528.035103,620.926568 486.426835,652.653827 442.308182,680.108054 C398.136118,707.562281 351.45367,730.690063 303.062025,749.064099 C254.67038,767.438134 204.569537,781.111834 153.774334,789.818136 C102.872305,798.524437 51.3293278,802.26334 0,801.195082 C51.3293278,800.073411 102.445006,794.091167 152.439023,783.24835 C202.433041,772.458946 251.251985,756.808968 297.987846,736.672307 C344.777118,716.535647 389.483307,691.912303 431.305226,663.336405 C473.180556,634.760508 512.225029,602.178643 547.690871,566.285179 C583.210125,530.391715 615.204159,491.133238 643.085438,449.364356 C671.02013,407.542061 694.842065,363.155947 714.123946,316.953794 C733.405827,270.751642 748.201065,222.840277 758.242598,174.020893 C768.284132,125.201509 773.518548,75.5275182 774.052672,25.8535277 C774.212909,11.1115692 786.444352,-0.158551176 801.186177,-1.51808572e-14 C815.928003,0.161926182 827.625321,11.6456982 827.466711,26.4410695 C827.466711,26.8149598 827.466711,27.1354371 827.411672,27.5093274 L827.466711,27.5627403 Z" transform="rotate(20 -4953.851 3584.444)"/><path fill="url(#t)" d="M992.960053,33.0752883 C989.496977,96.5939006 980.010932,159.72794 964.628158,221.259593 C949.181288,282.791246 927.837688,342.656416 900.981928,399.829577 C874.126167,457.002737 841.758245,511.419793 804.647302,562.183406 C767.472263,612.94702 725.554202,659.993096 679.598163,702.552489 C633.642124,745.111882 583.712201,783.184592 530.769819,816.129664 C477.763341,849.074737 421.744404,876.828076 363.67443,898.876918 C305.604456,920.92576 245.483445,937.334201 184.5292,947.781763 C123.446766,958.229325 61.5951933,962.716008 0,961.434098 C61.5951933,960.088094 122.934007,952.909401 182.926828,939.89802 C242.919649,926.950735 301.502382,908.170762 357.585415,884.006769 C413.732542,859.842776 467.379968,830.294764 517.566271,796.003686 C567.816668,761.712609 614.670035,722.614371 657.229045,679.542215 C699.85215,636.470058 738.244991,589.359886 771.702526,539.237227 C805.224156,489.050473 833.810479,435.787136 856.948735,380.344553 C880.086992,324.90197 897.841278,267.408332 909.891118,208.825071 C921.940958,150.24181 928.222258,90.6330218 928.863207,31.0242332 C929.055491,13.3338831 943.733222,-0.190261411 961.423413,0 C979.113604,0.194311419 993.150386,13.9748378 992.960053,31.7292834 C992.960053,32.1779517 992.960053,32.5625246 992.894006,33.0111929 L992.960053,33.0752883 Z" transform="rotate(60 -1190.93 1758.225)"/><path fill="url(#u)" d="M1158.4534,38.5878364 C1154.41314,112.692884 1143.34609,186.349263 1125.39952,258.136192 C1107.37817,329.92312 1082.4773,399.765819 1051.14558,466.467839 C1019.81386,533.16986 982.051286,596.656425 938.755185,655.88064 C895.384307,715.104856 846.479903,769.991945 792.864524,819.64457 C739.249145,869.297196 680.997568,913.715357 619.231455,952.151275 C557.390565,990.587193 492.035138,1022.96609 424.286835,1048.68974 C356.538531,1074.41339 286.397352,1093.55657 215.284067,1105.74539 C144.021227,1117.93421 71.8610589,1123.16868 0,1121.67311 C71.8610589,1120.10278 143.423008,1111.72763 213.414633,1096.54769 C283.406257,1081.44252 351.752779,1059.53256 417.182984,1031.34123 C482.687966,1003.14991 545.27663,968.677224 603.827316,928.670967 C662.452779,888.664711 717.115041,843.0501 766.767219,792.79925 C816.494175,742.548401 861.285823,687.586534 900.319614,629.110098 C939.428182,570.558885 972.778892,508.418326 999.773525,443.735312 C1026.76816,379.052299 1047.48149,311.976388 1061.53964,243.62925 C1075.59778,175.282112 1082.92597,105.738525 1083.67374,36.1949388 C1083.89807,15.5561969 1101.02209,-0.221971646 1121.66065,-2.12532001e-14 C1142.2992,0.226696655 1158.67545,16.3039774 1158.4534,37.0174973 C1158.4534,37.5409437 1158.4534,37.989612 1158.37634,38.5130583 L1158.4534,38.5878364 Z" transform="rotate(10 -10454.868 6254.202)"/><path fill="url(#v)" d="M1381.86941,46.0297763 C1377.04996,134.426512 1363.84855,222.28805 1342.44085,307.9196 C1320.94396,393.55115 1291.24078,476.863512 1253.86652,556.429494 C1216.49225,635.995476 1171.44689,711.725878 1119.80083,782.371907 C1068.06557,853.017936 1009.7296,918.490392 945.77411,977.71888 C881.818623,1036.94737 812.332814,1089.93189 738.654665,1135.78045 C664.887317,1181.62901 586.927629,1220.25241 506.113581,1250.93704 C425.299534,1281.62168 341.631127,1304.45676 256.803137,1318.99629 C171.79675,1333.53581 85.7199774,1339.77978 0,1337.99579 C85.7199774,1336.1226 171.08316,1326.13225 254.573169,1308.02474 C338.063178,1290.00644 419.590815,1263.87098 497.639702,1230.24275 C575.777788,1196.61453 650.437123,1155.49355 720.279727,1107.7718 C790.211529,1060.05005 855.415799,1005.63833 914.643754,945.696249 C973.960908,885.754164 1027.39095,820.192508 1073.95268,750.438475 C1120.60362,680.595242 1160.38625,606.470431 1192.58699,529.312837 C1224.78773,452.155242 1249.49578,372.143263 1266.26514,290.614891 C1283.0345,209.086519 1291.77598,126.130955 1292.66796,43.1753913 C1292.93556,18.5563206 1313.36207,-0.264780463 1337.98092,-2.53520316e-14 C1362.59977,0.270416724 1382.13429,19.4483159 1381.86941,44.1565861 C1381.86941,44.7809828 1381.86941,45.31618 1381.77749,45.9405767 L1381.86941,46.0297763 Z" transform="rotate(-40 3088.095 -318.478)"/><path fill="url(#w)" d="M1489.44008,49.6129325 C1484.24546,144.890851 1470.0164,239.59191 1446.94224,331.889389 C1423.77193,424.186868 1391.75653,513.984624 1351.47289,599.744365 C1311.18925,685.504106 1262.63737,767.129689 1206.97095,843.275109 C1151.20839,919.420529 1088.3313,989.989644 1019.39724,1053.82873 C950.463186,1117.66782 875.568302,1174.77689 796.154728,1224.1945 C716.645012,1273.61211 632.616606,1315.24211 545.511644,1348.31538 C458.406683,1381.38864 368.225167,1406.0013 276.793801,1421.67264 C185.170149,1437.34399 92.39279,1444.07401 0,1442.15115 C92.39279,1440.13214 184.401011,1429.3641 274.390242,1409.84703 C364.379474,1390.4261 452.253573,1362.25614 536.378122,1326.01015 C620.598813,1289.76416 701.069953,1245.44215 776.349406,1194.00553 C851.725002,1142.56891 922.005053,1083.92156 985.843568,1019.31332 C1049.77822,954.705086 1107.36749,884.039829 1157.55379,808.855841 C1207.83623,733.57571 1250.71572,653.680704 1285.4231,570.51683 C1320.13049,487.352956 1346.76192,401.112499 1364.83668,313.237607 C1382.91144,225.362716 1392.33339,135.949533 1393.29481,46.5363499 C1393.58324,20.0008246 1415.59983,-0.285392116 1442.13512,-2.7325543e-14 C1468.67041,0.291467128 1489.72558,20.9622567 1489.44008,47.5939251 C1489.44008,48.2669276 1489.44008,48.8437868 1489.34101,49.5167893 L1489.44008,49.6129325 Z" transform="rotate(40 -2160.91 2228.978)"/><path fill="url(#x)" d="M1737.68009,57.8817546 C1731.61971,169.039326 1715.01913,279.523895 1688.09928,387.204287 C1661.06725,494.88468 1623.71595,599.648728 1576.71837,699.701759 C1529.72079,799.75479 1473.07693,894.984637 1408.13278,983.820961 C1343.07646,1072.65728 1269.71985,1154.98792 1189.29679,1229.46686 C1108.87372,1303.94579 1021.49635,1370.57304 928.847183,1428.22691 C836.085847,1485.88079 738.052707,1534.44913 636.430252,1573.03461 C534.807797,1611.62008 429.596028,1640.33485 322.926101,1658.61809 C216.031841,1676.90132 107.791588,1684.75301 0,1682.50967 C107.791588,1680.15416 215.134512,1667.59145 320.121949,1644.82154 C425.109386,1622.16379 527.629169,1589.29883 625.774476,1547.01185 C724.031949,1504.72486 817.914945,1453.01584 905.740974,1393.00645 C993.679168,1332.99707 1075.67256,1264.57515 1150.15083,1189.19888 C1224.74126,1113.8226 1291.92873,1031.3798 1350.47942,943.665148 C1409.14227,855.838328 1459.16834,762.627488 1499.66029,665.602968 C1540.15224,568.578448 1571.22224,467.964582 1592.30946,365.443875 C1613.39668,262.923168 1624.38895,158.607788 1625.51061,54.2924082 C1625.84711,23.3342954 1651.53314,-0.332957469 1682.49097,-1.8189894e-12 C1713.44881,0.340044983 1738.01317,24.4559662 1737.68009,55.526246 C1737.68009,56.3114155 1737.68009,56.984418 1737.56451,57.7695875 L1737.68009,57.8817546 Z" transform="rotate(25 -3845.222 3046.41)"/><path fill="url(#y)" d="M1985.92011,66.1505767 C1978.99395,193.187801 1960.02186,319.45588 1929.25632,442.519186 C1898.36258,565.582491 1855.67538,685.312832 1801.96386,799.659153 C1748.25233,914.005474 1683.51649,1022.83959 1609.2946,1124.36681 C1534.94453,1225.89404 1451.1084,1319.98619 1359.19633,1405.10498 C1267.28425,1490.22376 1167.4244,1566.36918 1061.53964,1632.25933 C955.526683,1698.14947 843.488808,1753.65615 727.348859,1797.75384 C611.208911,1841.85152 490.96689,1874.6684 369.058401,1895.56353 C246.893532,1916.45865 123.190387,1925.43202 0,1922.8682 C123.190387,1920.17619 245.868014,1905.8188 365.853656,1879.79604 C485.839298,1853.90147 603.004765,1816.34152 715.170829,1768.01354 C827.465084,1719.68555 934.759937,1660.58953 1035.13254,1592.00737 C1135.63334,1523.42522 1229.34007,1445.22874 1314.45809,1359.08443 C1399.7043,1272.94012 1476.48998,1178.71977 1543.40505,1078.47445 C1610.44831,978.100946 1667.62096,871.574272 1713.89747,760.689107 C1760.17398,649.803941 1795.68256,534.816665 1819.78224,417.650143 C1843.88192,300.483621 1856.44452,181.266044 1857.72641,62.0484665 C1858.11098,26.6677662 1887.46644,-0.380522822 1922.84683,-9.09494702e-13 C1958.22721,0.388622837 1986.30077,27.9496756 1985.92011,63.4585669 C1985.92011,64.3559035 1985.92011,65.1250491 1985.78801,66.0223857 L1985.92011,66.1505767 Z" transform="rotate(8 -13196.99 7585.018)"/><path fill="url(#z)" d="M2206.02625,73.4822656 C2198.33245,214.599449 2177.25762,354.86224 2143.08222,491.565062 C2108.76443,628.267884 2061.34606,761.268338 2001.68152,888.288043 C1942.01697,1015.30775 1870.10624,1136.20431 1787.65809,1248.98413 C1705.06754,1361.76396 1611.93959,1466.28466 1509.84059,1560.83745 C1407.74159,1655.39023 1296.81394,1739.9751 1179.19361,1813.16807 C1061.43089,1886.36104 936.975484,1948.01971 807.963358,1997.00489 C678.951232,2045.99006 545.382386,2082.44415 409.962374,2105.65515 C274.257566,2128.86615 136.843988,2138.83406 -3.63797881e-12,2135.98609 C136.843988,2132.99571 273.118386,2117.04705 406.402436,2088.1401 C539.686487,2059.37555 669.837793,2017.65271 794.435596,1963.96837 C919.175798,1910.28403 1038.3625,1844.6382 1149.85973,1768.45486 C1261.49936,1692.27151 1365.59193,1605.40826 1460.14386,1509.71629 C1554.83819,1414.02431 1640.13429,1309.36121 1714.46578,1198.00537 C1788.93967,1086.50713 1852.44895,968.173754 1903.85444,844.998816 C1955.25993,721.823877 1994.70404,594.092178 2021.47477,463.9397 C2048.2455,333.787222 2062.20045,201.356363 2063.62442,68.9255048 C2064.05162,29.6234436 2096.66064,-0.422697434 2135.96235,3.63797881e-12 C2175.26406,0.431695202 2206.44911,31.0474313 2206.02625,70.4918913 C2206.02625,71.4886828 2206.02625,72.3430754 2205.87952,73.3398668 L2206.02625,73.4822656 Z" transform="rotate(-60 2118.112 152.272)"/><path fill="url(#A)" d="M2399.65346,79.9319468 C2391.28436,233.43526 2368.35975,386.009189 2331.18471,534.710683 C2293.85478,683.412177 2242.27441,828.086339 2177.37299,966.25481 C2112.47157,1104.42328 2034.24909,1235.93117 1944.56431,1358.6099 C1854.72464,1481.28863 1753.42266,1594.98331 1642.36223,1697.83518 C1531.3018,1800.68705 1410.63782,1892.6961 1282.69373,1972.31336 C1154.59474,2051.93061 1019.21564,2119.00118 878.879872,2172.28589 C738.544101,2225.57059 593.251658,2265.22432 445.945568,2290.47259 C298.329685,2315.72087 148.855051,2326.56369 0,2323.46574 C148.855051,2320.21289 297.090517,2302.86439 442.073168,2271.42022 C587.055818,2240.13094 728.630757,2194.74601 864.164752,2136.34969 C999.853643,2077.95338 1129.50159,2006.54568 1250.78515,1923.67558 C1372.22361,1840.80547 1485.45259,1746.31806 1588.30353,1642.22702 C1691.30936,1538.13597 1784.09206,1424.28639 1864.94777,1303.15663 C1945.95838,1181.87198 2015.04199,1053.15225 2070.95944,919.166004 C2126.8769,785.179762 2169.78309,646.236803 2198.90354,504.660589 C2228.02398,363.084375 2243.20379,219.029803 2244.75275,74.9752303 C2245.21744,32.2235508 2280.68862,-0.459798409 2323.43991,-4.4024486e-14 C2366.19121,0.469585928 2400.11343,33.7725247 2399.65346,76.6791016 C2399.65346,77.7633833 2399.65346,78.6927677 2399.49385,79.7770494 L2399.65346,79.9319468 Z" transform="rotate(-30 4028.591 -774.92)"/><path fill="url(#B)" d="M2647.89347,88.2007689 C2638.6586,257.583735 2613.36249,425.941174 2572.34175,590.025581 C2531.1501,754.109988 2474.23384,913.750443 2402.61847,1066.2122 C2331.00311,1218.67397 2244.68865,1363.78611 2145.72614,1499.15575 C2046.5927,1634.52539 1934.81121,1759.98159 1812.26177,1873.4733 C1689.71233,1986.96502 1556.56587,2088.49225 1415.38618,2176.34577 C1274.03558,2264.1993 1124.65174,2338.2082 969.798479,2397.00512 C814.945215,2455.80203 654.622519,2499.55787 492.077868,2527.41803 C329.191377,2555.2782 164.253849,2567.24269 0,2563.82426 C164.253849,2560.23492 327.824019,2541.09174 487.804875,2506.39472 C647.785731,2471.86863 804.006353,2421.7887 953.561106,2357.35138 C1103.28678,2292.91407 1246.34658,2214.11937 1380.17672,2122.6765 C1514.17778,2031.23362 1639.12009,1926.97166 1752.61079,1812.11257 C1866.2724,1697.25349 1968.65331,1571.62636 2057.8734,1437.96594 C2147.26442,1304.13459 2223.49461,1162.09903 2285.19663,1014.25214 C2346.89865,866.405254 2394.24341,713.088886 2426.37631,556.866857 C2458.50922,400.644828 2475.25935,241.688058 2476.96855,82.7312886 C2477.48131,35.5570216 2516.62193,-0.507363762 2563.79577,0 C2610.96961,0.518163783 2648.40103,37.2662341 2647.89347,84.6114225 C2647.89347,85.8078713 2647.89347,86.8333988 2647.71735,88.0298476 L2647.89347,88.2007689 Z" transform="rotate(10 -10454.857 6254.21)"/></g><g transform="rotate(120 1876.865 4050.908)"><path fill="url(#n)" d="M198.592011,6.61505767 C197.899395,19.3187801 196.002186,31.945588 192.925632,44.2519186 C189.836258,56.5582491 185.567538,68.5312832 180.196386,79.9659153 C174.825233,91.4005474 168.351649,102.283959 160.92946,112.436681 C153.494453,122.589404 145.11084,131.998619 135.919633,140.510498 C126.728425,149.022376 116.74244,156.636918 106.153964,163.225933 C95.5526683,169.814947 84.3488808,175.365615 72.7348859,179.775384 C61.1208911,184.185152 49.096689,187.46684 36.9058401,189.556353 C24.6893532,191.645865 12.3190387,192.543202 0,192.28682 C12.3190387,192.017619 24.5868014,190.58188 36.5853656,187.979604 C48.5839298,185.390147 60.3004765,181.634152 71.5170829,176.801354 C82.7465084,171.968555 93.4759937,166.058953 103.513254,159.200737 C113.563334,152.342522 122.934007,144.522874 131.445809,135.908443 C139.97043,127.294012 147.648998,117.871977 154.340505,107.847445 C161.044831,97.8100946 166.762096,87.1574272 171.389747,76.0689107 C176.017398,64.9803941 179.568256,53.4816665 181.978224,41.7650143 C184.388192,30.0483621 185.644452,18.1266044 185.772641,6.20484665 C185.811098,2.66677662 188.746644,-0.0380522822 192.284683,0 C195.822721,0.0388622837 198.630077,2.79496756 198.592011,6.34585669 C198.592011,6.43559035 198.592011,6.51250491 198.578801,6.60223857 L198.592011,6.61505767 Z" transform="rotate(60 -1190.93 1758.22)"/><path fill="url(#o)" d="M330.986684,11.0250961 C329.832326,32.1979669 326.670311,53.2426467 321.542719,73.7531976 C316.393763,94.2637485 309.279229,114.218805 300.327309,133.276526 C291.375389,152.334246 280.586082,170.473264 268.215767,187.394469 C255.824088,204.315673 241.851401,219.997699 226.532721,234.184163 C211.214041,248.370627 194.570734,261.061531 176.923273,272.043221 C159.254447,283.024912 140.581468,292.276025 121.22481,299.625639 C101.868152,306.975253 81.8278149,312.444734 61.5097335,315.927254 C41.1489221,319.409775 20.5317311,320.905336 3.63797881e-12,320.478033 C20.5317311,320.029365 40.9780024,317.636467 60.9756093,313.29934 C80.9732163,308.983578 100.500794,302.723587 119.195138,294.668923 C137.910847,286.614259 155.793323,276.764921 172.52209,265.334562 C189.272223,253.904203 204.890012,240.871457 219.076348,226.514072 C233.28405,212.156686 246.081664,196.453295 257.234175,179.745742 C268.408052,163.016824 277.936826,145.262379 285.649578,126.781518 C293.362331,108.300657 299.280426,89.1361108 303.297039,69.6083571 C307.313653,50.0806034 309.407419,30.2110073 309.621069,10.3414111 C309.685164,4.4446277 314.577741,-0.0634204703 320.474471,0 C326.371201,0.0647704729 331.050129,4.65827927 330.986684,10.5764278 C330.986684,10.7259839 330.986684,10.8541749 330.964669,11.003731 L330.986684,11.0250961 Z" transform="rotate(10 -10454.875 6254.197)"/><path fill="url(#p)" d="M413.733355,13.7813701 C412.290407,40.2474586 408.337888,66.5533084 401.928399,92.191497 C395.492203,117.829686 386.599037,142.773507 375.409137,166.595657 C364.219236,190.417807 350.732602,213.09158 335.269709,234.243086 C319.78011,255.394591 302.314251,274.997123 283.165901,292.730204 C264.017552,310.463284 243.213417,326.326913 221.154091,340.054027 C199.068059,353.78114 175.726835,365.345032 151.531012,374.532049 C127.33519,383.719067 102.284769,390.555917 76.8871668,394.909068 C51.4361526,399.262219 25.6646639,401.13167 7.27595761e-12,400.597541 C25.6646639,400.036706 51.2225029,397.045584 76.2195117,391.624175 C101.21652,386.229473 125.625993,378.404484 148.993923,368.336154 C172.388559,358.267823 194.741654,345.956152 215.652613,331.668203 C236.590278,317.380254 256.112515,301.089321 273.845435,283.142589 C291.605062,265.195857 307.60208,245.566619 321.542719,224.682178 C335.510065,203.77103 347.421033,181.577973 357.061973,158.476897 C366.702913,135.375821 374.100532,111.420138 379.121299,87.0104464 C384.142066,62.6007543 386.759274,37.7637591 387.026336,12.9267639 C387.106455,5.55578462 393.222176,-0.0792755878 400.593089,0 C407.964002,0.0809630911 413.812661,5.82284909 413.733355,13.2205348 C413.733355,13.4074799 413.733355,13.5677186 413.705836,13.7546637 L413.733355,13.7813701 Z" transform="rotate(40 -2160.91 2228.971)"/><path fill="url(#q)" d="M496.480026,16.5376442 C494.748488,48.2969503 490.005466,79.8639701 482.314079,110.629796 C474.590644,141.395623 463.918844,171.328208 450.490964,199.914788 C437.063084,228.501369 420.879123,255.709896 402.323651,281.091703 C383.736132,306.47351 362.777101,329.996548 339.799082,351.276244 C316.821062,372.555941 291.856101,391.592296 265.384909,408.064832 C238.881671,424.537368 210.872202,438.414038 181.837215,449.438459 C152.802228,460.46288 122.741722,468.667101 92.2646002,473.890882 C61.7233831,479.114662 30.7975967,481.358004 1.13686838e-12,480.717049 C30.7975967,480.044047 61.4670035,476.4547 91.463414,469.94901 C121.459825,463.475367 150.751191,454.085381 178.792707,442.003384 C206.866271,429.921388 233.689984,415.147382 258.783135,398.001843 C283.908334,380.856305 307.335018,361.307186 328.614523,339.771107 C349.926075,318.235029 369.122496,294.679943 385.851263,269.618614 C402.612078,244.525237 416.905239,217.893568 428.474368,190.172277 C440.043496,162.450985 448.920639,133.704166 454.945559,104.412536 C460.970479,75.1209052 464.111129,45.3165109 464.431603,15.5121166 C464.527746,6.66694154 471.866611,-0.0951307054 480.711706,7.27595761e-12 C489.556802,0.0971557093 496.575193,6.9874189 496.480026,15.8646417 C496.480026,16.0889759 496.480026,16.2812623 496.447003,16.5055964 L496.480026,16.5376442 Z" transform="rotate(-20 5881.044 -1673.951)"/><path fill="url(#r)" d="M661.973369,22.0501922 C659.664651,64.3959338 653.340621,106.485293 643.085438,147.506395 C632.787525,188.527497 618.558459,228.437611 600.654618,266.553051 C582.750778,304.668491 561.172164,340.946528 536.431534,374.788937 C511.648175,408.631346 483.702802,439.995397 453.065442,468.368326 C422.428083,496.741255 389.141468,522.123061 353.846546,544.086443 C318.508894,566.049825 281.162936,584.552051 242.44962,599.251279 C203.736304,613.950507 163.65563,624.889467 123.019467,631.854509 C82.2978441,638.81955 41.0634622,641.810672 0,640.956066 C41.0634622,640.058729 81.9560047,635.272934 121.951219,626.59868 C161.946433,617.967157 201.001588,605.447174 238.390276,589.337846 C275.821695,573.228517 311.586646,553.529842 345.04418,530.669124 C378.544445,507.808406 409.780024,481.742914 438.152697,453.028143 C466.5681,424.313372 492.163328,392.906591 514.468351,359.491485 C536.816104,326.033649 555.873652,290.524757 571.299157,253.563036 C586.724661,216.601314 598.560852,178.272222 606.594079,139.216714 C614.627305,100.161207 618.814838,60.4220145 619.242138,20.6828222 C619.370328,8.88925539 629.155481,-0.126840941 640.948942,-1.21446858e-14 C652.742402,0.129540946 662.100257,9.31655854 661.973369,21.1528556 C661.973369,21.4519678 661.973369,21.7083497 661.929337,22.0074619 L661.973369,22.0501922 Z" transform="rotate(-30 4028.607 -774.927)"/><path fill="url(#s)" d="M827.466711,27.5627403 C824.580814,80.4949172 816.675777,133.106617 803.856798,184.382994 C790.984407,235.659371 773.198074,285.547013 750.818273,333.191314 C728.438473,380.835614 701.465205,426.183161 670.539418,468.486172 C639.560219,510.789183 604.628502,549.994246 566.331803,585.460407 C528.035103,620.926568 486.426835,652.653827 442.308182,680.108054 C398.136118,707.562281 351.45367,730.690063 303.062025,749.064099 C254.67038,767.438134 204.569537,781.111834 153.774334,789.818136 C102.872305,798.524437 51.3293278,802.26334 0,801.195082 C51.3293278,800.073411 102.445006,794.091167 152.439023,783.24835 C202.433041,772.458946 251.251985,756.808968 297.987846,736.672307 C344.777118,716.535647 389.483307,691.912303 431.305226,663.336405 C473.180556,634.760508 512.225029,602.178643 547.690871,566.285179 C583.210125,530.391715 615.204159,491.133238 643.085438,449.364356 C671.02013,407.542061 694.842065,363.155947 714.123946,316.953794 C733.405827,270.751642 748.201065,222.840277 758.242598,174.020893 C768.284132,125.201509 773.518548,75.5275182 774.052672,25.8535277 C774.212909,11.1115692 786.444352,-0.158551176 801.186177,3.63797881e-12 C815.928003,0.161926182 827.625321,11.6456982 827.466711,26.4410695 C827.466711,26.8149598 827.466711,27.1354371 827.411672,27.5093274 L827.466711,27.5627403 Z" transform="rotate(20 -4953.851 3584.444)"/><path fill="url(#t)" d="M992.960053,33.0752883 C989.496977,96.5939006 980.010932,159.72794 964.628158,221.259593 C949.181288,282.791246 927.837688,342.656416 900.981928,399.829577 C874.126167,457.002737 841.758245,511.419793 804.647302,562.183406 C767.472263,612.94702 725.554202,659.993096 679.598163,702.552489 C633.642124,745.111882 583.712201,783.184592 530.769819,816.129664 C477.763341,849.074737 421.744404,876.828076 363.67443,898.876918 C305.604456,920.92576 245.483445,937.334201 184.5292,947.781763 C123.446766,958.229325 61.5951933,962.716008 0,961.434098 C61.5951933,960.088094 122.934007,952.909401 182.926828,939.89802 C242.919649,926.950735 301.502382,908.170762 357.585415,884.006769 C413.732542,859.842776 467.379968,830.294764 517.566271,796.003686 C567.816668,761.712609 614.670035,722.614371 657.229045,679.542215 C699.85215,636.470058 738.244991,589.359886 771.702526,539.237227 C805.224156,489.050473 833.810479,435.787136 856.948735,380.344553 C880.086992,324.90197 897.841278,267.408332 909.891118,208.825071 C921.940958,150.24181 928.222258,90.6330218 928.863207,31.0242332 C929.055491,13.3338831 943.733222,-0.190261411 961.423413,-1.82170287e-14 C979.113604,0.194311419 993.150386,13.9748378 992.960053,31.7292834 C992.960053,32.1779517 992.960053,32.5625246 992.894006,33.0111929 L992.960053,33.0752883 Z" transform="rotate(60 -1190.93 1758.225)"/><path fill="url(#u)" d="M1158.4534,38.5878364 C1154.41314,112.692884 1143.34609,186.349263 1125.39952,258.136192 C1107.37817,329.92312 1082.4773,399.765819 1051.14558,466.467839 C1019.81386,533.16986 982.051286,596.656425 938.755185,655.88064 C895.384307,715.104856 846.479903,769.991945 792.864524,819.64457 C739.249145,869.297196 680.997568,913.715357 619.231455,952.151275 C557.390565,990.587193 492.035138,1022.96609 424.286835,1048.68974 C356.538531,1074.41339 286.397352,1093.55657 215.284067,1105.74539 C144.021227,1117.93421 71.8610589,1123.16868 0,1121.67311 C71.8610589,1120.10278 143.423008,1111.72763 213.414633,1096.54769 C283.406257,1081.44252 351.752779,1059.53256 417.182984,1031.34123 C482.687966,1003.14991 545.27663,968.677224 603.827316,928.670967 C662.452779,888.664711 717.115041,843.0501 766.767219,792.79925 C816.494175,742.548401 861.285823,687.586534 900.319614,629.110098 C939.428182,570.558885 972.778892,508.418326 999.773525,443.735312 C1026.76816,379.052299 1047.48149,311.976388 1061.53964,243.62925 C1075.59778,175.282112 1082.92597,105.738525 1083.67374,36.1949388 C1083.89807,15.5561969 1101.02209,-0.221971646 1121.66065,-2.12532001e-14 C1142.2992,0.226696655 1158.67545,16.3039774 1158.4534,37.0174973 C1158.4534,37.5409437 1158.4534,37.989612 1158.37634,38.5130583 L1158.4534,38.5878364 Z" transform="rotate(10 -10454.868 6254.202)"/><path fill="url(#v)" d="M1381.86941,46.0297763 C1377.04996,134.426512 1363.84855,222.28805 1342.44085,307.9196 C1320.94396,393.55115 1291.24078,476.863512 1253.86652,556.429494 C1216.49225,635.995476 1171.44689,711.725878 1119.80083,782.371907 C1068.06557,853.017936 1009.7296,918.490392 945.77411,977.71888 C881.818623,1036.94737 812.332814,1089.93189 738.654665,1135.78045 C664.887317,1181.62901 586.927629,1220.25241 506.113581,1250.93704 C425.299534,1281.62168 341.631127,1304.45676 256.803137,1318.99629 C171.79675,1333.53581 85.7199774,1339.77978 0,1337.99579 C85.7199774,1336.1226 171.08316,1326.13225 254.573169,1308.02474 C338.063178,1290.00644 419.590815,1263.87098 497.639702,1230.24275 C575.777788,1196.61453 650.437123,1155.49355 720.279727,1107.7718 C790.211529,1060.05005 855.415799,1005.63833 914.643754,945.696249 C973.960908,885.754164 1027.39095,820.192508 1073.95268,750.438475 C1120.60362,680.595242 1160.38625,606.470431 1192.58699,529.312837 C1224.78773,452.155242 1249.49578,372.143263 1266.26514,290.614891 C1283.0345,209.086519 1291.77598,126.130955 1292.66796,43.1753913 C1292.93556,18.5563206 1313.36207,-0.264780463 1337.98092,0 C1362.59977,0.270416724 1382.13429,19.4483159 1381.86941,44.1565861 C1381.86941,44.7809828 1381.86941,45.31618 1381.77749,45.9405767 L1381.86941,46.0297763 Z" transform="rotate(-40 3088.095 -318.478)"/><path fill="url(#w)" d="M1489.44008,49.6129325 C1484.24546,144.890851 1470.0164,239.59191 1446.94224,331.889389 C1423.77193,424.186868 1391.75653,513.984624 1351.47289,599.744365 C1311.18925,685.504106 1262.63737,767.129689 1206.97095,843.275109 C1151.20839,919.420529 1088.3313,989.989644 1019.39724,1053.82873 C950.463186,1117.66782 875.568302,1174.77689 796.154728,1224.1945 C716.645012,1273.61211 632.616606,1315.24211 545.511644,1348.31538 C458.406683,1381.38864 368.225167,1406.0013 276.793801,1421.67264 C185.170149,1437.34399 92.39279,1444.07401 0,1442.15115 C92.39279,1440.13214 184.401011,1429.3641 274.390242,1409.84703 C364.379474,1390.4261 452.253573,1362.25614 536.378122,1326.01015 C620.598813,1289.76416 701.069953,1245.44215 776.349406,1194.00553 C851.725002,1142.56891 922.005053,1083.92156 985.843568,1019.31332 C1049.77822,954.705086 1107.36749,884.039829 1157.55379,808.855841 C1207.83623,733.57571 1250.71572,653.680704 1285.4231,570.51683 C1320.13049,487.352956 1346.76192,401.112499 1364.83668,313.237607 C1382.91144,225.362716 1392.33339,135.949533 1393.29481,46.5363499 C1393.58324,20.0008246 1415.59983,-0.285392116 1442.13512,-2.7325543e-14 C1468.67041,0.291467128 1489.72558,20.9622567 1489.44008,47.5939251 C1489.44008,48.2669276 1489.44008,48.8437868 1489.34101,49.5167893 L1489.44008,49.6129325 Z" transform="rotate(40 -2160.91 2228.978)"/><path fill="url(#x)" d="M1737.68009,57.8817546 C1731.61971,169.039326 1715.01913,279.523895 1688.09928,387.204287 C1661.06725,494.88468 1623.71595,599.648728 1576.71837,699.701759 C1529.72079,799.75479 1473.07693,894.984637 1408.13278,983.820961 C1343.07646,1072.65728 1269.71985,1154.98792 1189.29679,1229.46686 C1108.87372,1303.94579 1021.49635,1370.57304 928.847183,1428.22691 C836.085847,1485.88079 738.052707,1534.44913 636.430252,1573.03461 C534.807797,1611.62008 429.596028,1640.33485 322.926101,1658.61809 C216.031841,1676.90132 107.791588,1684.75301 -3.63797881e-12,1682.50967 C107.791588,1680.15416 215.134512,1667.59145 320.121949,1644.82154 C425.109386,1622.16379 527.629169,1589.29883 625.774476,1547.01185 C724.031949,1504.72486 817.914945,1453.01584 905.740974,1393.00645 C993.679168,1332.99707 1075.67256,1264.57515 1150.15083,1189.19888 C1224.74126,1113.8226 1291.92873,1031.3798 1350.47942,943.665148 C1409.14227,855.838328 1459.16834,762.627488 1499.66029,665.602968 C1540.15224,568.578448 1571.22224,467.964582 1592.30946,365.443875 C1613.39668,262.923168 1624.38895,158.607788 1625.51061,54.2924082 C1625.84711,23.3342954 1651.53314,-0.332957469 1682.49097,-3.63797881e-12 C1713.44881,0.340044983 1738.01317,24.4559662 1737.68009,55.526246 C1737.68009,56.3114155 1737.68009,56.984418 1737.56451,57.7695875 L1737.68009,57.8817546 Z" transform="rotate(25 -3845.222 3046.41)"/><path fill="url(#y)" d="M1985.92011,66.1505767 C1978.99395,193.187801 1960.02186,319.45588 1929.25632,442.519186 C1898.36258,565.582491 1855.67538,685.312832 1801.96386,799.659153 C1748.25233,914.005474 1683.51649,1022.83959 1609.2946,1124.36681 C1534.94453,1225.89404 1451.1084,1319.98619 1359.19633,1405.10498 C1267.28425,1490.22376 1167.4244,1566.36918 1061.53964,1632.25933 C955.526683,1698.14947 843.488808,1753.65615 727.348859,1797.75384 C611.208911,1841.85152 490.96689,1874.6684 369.058401,1895.56353 C246.893532,1916.45865 123.190387,1925.43202 0,1922.8682 C123.190387,1920.17619 245.868014,1905.8188 365.853656,1879.79604 C485.839298,1853.90147 603.004765,1816.34152 715.170829,1768.01354 C827.465084,1719.68555 934.759937,1660.58953 1035.13254,1592.00737 C1135.63334,1523.42522 1229.34007,1445.22874 1314.45809,1359.08443 C1399.7043,1272.94012 1476.48998,1178.71977 1543.40505,1078.47445 C1610.44831,978.100946 1667.62096,871.574272 1713.89747,760.689107 C1760.17398,649.803941 1795.68256,534.816665 1819.78224,417.650143 C1843.88192,300.483621 1856.44452,181.266044 1857.72641,62.0484665 C1858.11098,26.6677662 1887.46644,-0.380522822 1922.84683,-3.63797881e-12 C1958.22721,0.388622837 1986.30077,27.9496756 1985.92011,63.4585669 C1985.92011,64.3559035 1985.92011,65.1250491 1985.78801,66.0223857 L1985.92011,66.1505767 Z" transform="rotate(8 -13196.99 7585.018)"/><path fill="url(#z)" d="M2206.02625,73.4822656 C2198.33245,214.599449 2177.25762,354.86224 2143.08222,491.565062 C2108.76443,628.267884 2061.34606,761.268338 2001.68152,888.288043 C1942.01697,1015.30775 1870.10624,1136.20431 1787.65809,1248.98413 C1705.06754,1361.76396 1611.93959,1466.28466 1509.84059,1560.83745 C1407.74159,1655.39023 1296.81394,1739.9751 1179.19361,1813.16807 C1061.43089,1886.36104 936.975484,1948.01971 807.963358,1997.00489 C678.951232,2045.99006 545.382386,2082.44415 409.962374,2105.65515 C274.257566,2128.86615 136.843988,2138.83406 3.63797881e-12,2135.98609 C136.843988,2132.99571 273.118386,2117.04705 406.402436,2088.1401 C539.686487,2059.37555 669.837793,2017.65271 794.435596,1963.96837 C919.175798,1910.28403 1038.3625,1844.6382 1149.85973,1768.45486 C1261.49936,1692.27151 1365.59193,1605.40826 1460.14386,1509.71629 C1554.83819,1414.02431 1640.13429,1309.36121 1714.46578,1198.00537 C1788.93967,1086.50713 1852.44895,968.173754 1903.85444,844.998816 C1955.25993,721.823877 1994.70404,594.092178 2021.47477,463.9397 C2048.2455,333.787222 2062.20045,201.356363 2063.62442,68.9255048 C2064.05162,29.6234436 2096.66064,-0.422697434 2135.96235,3.63797881e-12 C2175.26406,0.431695202 2206.44911,31.0474313 2206.02625,70.4918913 C2206.02625,71.4886828 2206.02625,72.3430754 2205.87952,73.3398668 L2206.02625,73.4822656 Z" transform="rotate(-60 2118.112 152.272)"/><path fill="url(#A)" d="M2399.65346,79.9319468 C2391.28436,233.43526 2368.35975,386.009189 2331.18471,534.710683 C2293.85478,683.412177 2242.27441,828.086339 2177.37299,966.25481 C2112.47157,1104.42328 2034.24909,1235.93117 1944.56431,1358.6099 C1854.72464,1481.28863 1753.42266,1594.98331 1642.36223,1697.83518 C1531.3018,1800.68705 1410.63782,1892.6961 1282.69373,1972.31336 C1154.59474,2051.93061 1019.21564,2119.00118 878.879872,2172.28589 C738.544101,2225.57059 593.251658,2265.22432 445.945568,2290.47259 C298.329685,2315.72087 148.855051,2326.56369 0,2323.46574 C148.855051,2320.21289 297.090517,2302.86439 442.073168,2271.42022 C587.055818,2240.13094 728.630757,2194.74601 864.164752,2136.34969 C999.853643,2077.95338 1129.50159,2006.54568 1250.78515,1923.67558 C1372.22361,1840.80547 1485.45259,1746.31806 1588.30353,1642.22702 C1691.30936,1538.13597 1784.09206,1424.28639 1864.94777,1303.15663 C1945.95838,1181.87198 2015.04199,1053.15225 2070.95944,919.166004 C2126.8769,785.179762 2169.78309,646.236803 2198.90354,504.660589 C2228.02398,363.084375 2243.20379,219.029803 2244.75275,74.9752303 C2245.21744,32.2235508 2280.68862,-0.459798409 2323.43991,-4.4024486e-14 C2366.19121,0.469585928 2400.11343,33.7725247 2399.65346,76.6791016 C2399.65346,77.7633833 2399.65346,78.6927677 2399.49385,79.7770494 L2399.65346,79.9319468 Z" transform="rotate(-30 4028.591 -774.92)"/><path fill="url(#B)" d="M2647.89347,88.2007689 C2638.6586,257.583735 2613.36249,425.941174 2572.34175,590.025581 C2531.1501,754.109988 2474.23384,913.750443 2402.61847,1066.2122 C2331.00311,1218.67397 2244.68865,1363.78611 2145.72614,1499.15575 C2046.5927,1634.52539 1934.81121,1759.98159 1812.26177,1873.4733 C1689.71233,1986.96502 1556.56587,2088.49225 1415.38618,2176.34577 C1274.03558,2264.1993 1124.65174,2338.2082 969.798479,2397.00512 C814.945215,2455.80203 654.622519,2499.55787 492.077868,2527.41803 C329.191377,2555.2782 164.253849,2567.24269 0,2563.82426 C164.253849,2560.23492 327.824019,2541.09174 487.804875,2506.39472 C647.785731,2471.86863 804.006353,2421.7887 953.561106,2357.35138 C1103.28678,2292.91407 1246.34658,2214.11937 1380.17672,2122.6765 C1514.17778,2031.23362 1639.12009,1926.97166 1752.61079,1812.11257 C1866.2724,1697.25349 1968.65331,1571.62636 2057.8734,1437.96594 C2147.26442,1304.13459 2223.49461,1162.09903 2285.19663,1014.25214 C2346.89865,866.405254 2394.24341,713.088886 2426.37631,556.866857 C2458.50922,400.644828 2475.25935,241.688058 2476.96855,82.7312886 C2477.48131,35.5570216 2516.62193,-0.507363762 2563.79577,3.63797881e-12 C2610.96961,0.518163783 2648.40103,37.2662341 2647.89347,84.6114225 C2647.89347,85.8078713 2647.89347,86.8333988 2647.71735,88.0298476 L2647.89347,88.2007689 Z" transform="rotate(10 -10454.857 6254.21)"/></g><g transform="rotate(-120 3255.681 2158.253)"><path fill="url(#n)" d="M198.592011,6.61505767 C197.899395,19.3187801 196.002186,31.945588 192.925632,44.2519186 C189.836258,56.5582491 185.567538,68.5312832 180.196386,79.9659153 C174.825233,91.4005474 168.351649,102.283959 160.92946,112.436681 C153.494453,122.589404 145.11084,131.998619 135.919633,140.510498 C126.728425,149.022376 116.74244,156.636918 106.153964,163.225933 C95.5526683,169.814947 84.3488808,175.365615 72.7348859,179.775384 C61.1208911,184.185152 49.096689,187.46684 36.9058401,189.556353 C24.6893532,191.645865 12.3190387,192.543202 -3.63797881e-12,192.28682 C12.3190387,192.017619 24.5868014,190.58188 36.5853656,187.979604 C48.5839298,185.390147 60.3004765,181.634152 71.5170829,176.801354 C82.7465084,171.968555 93.4759937,166.058953 103.513254,159.200737 C113.563334,152.342522 122.934007,144.522874 131.445809,135.908443 C139.97043,127.294012 147.648998,117.871977 154.340505,107.847445 C161.044831,97.8100946 166.762096,87.1574272 171.389747,76.0689107 C176.017398,64.9803941 179.568256,53.4816665 181.978224,41.7650143 C184.388192,30.0483621 185.644452,18.1266044 185.772641,6.20484665 C185.811098,2.66677662 188.746644,-0.0380522822 192.284683,0 C195.822721,0.0388622837 198.630077,2.79496756 198.592011,6.34585669 C198.592011,6.43559035 198.592011,6.51250491 198.578801,6.60223857 L198.592011,6.61505767 Z" transform="rotate(60 -1190.93 1758.22)"/><path fill="url(#o)" d="M330.986684,11.0250961 C329.832326,32.1979669 326.670311,53.2426467 321.542719,73.7531976 C316.393763,94.2637485 309.279229,114.218805 300.327309,133.276526 C291.375389,152.334246 280.586082,170.473264 268.215767,187.394469 C255.824088,204.315673 241.851401,219.997699 226.532721,234.184163 C211.214041,248.370627 194.570734,261.061531 176.923273,272.043221 C159.254447,283.024912 140.581468,292.276025 121.22481,299.625639 C101.868152,306.975253 81.8278149,312.444734 61.5097335,315.927254 C41.1489221,319.409775 20.5317311,320.905336 0,320.478033 C20.5317311,320.029365 40.9780024,317.636467 60.9756093,313.29934 C80.9732163,308.983578 100.500794,302.723587 119.195138,294.668923 C137.910847,286.614259 155.793323,276.764921 172.52209,265.334562 C189.272223,253.904203 204.890012,240.871457 219.076348,226.514072 C233.28405,212.156686 246.081664,196.453295 257.234175,179.745742 C268.408052,163.016824 277.936826,145.262379 285.649578,126.781518 C293.362331,108.300657 299.280426,89.1361108 303.297039,69.6083571 C307.313653,50.0806034 309.407419,30.2110073 309.621069,10.3414111 C309.685164,4.4446277 314.577741,-0.0634204703 320.474471,0 C326.371201,0.0647704729 331.050129,4.65827927 330.986684,10.5764278 C330.986684,10.7259839 330.986684,10.8541749 330.964669,11.003731 L330.986684,11.0250961 Z" transform="rotate(10 -10454.875 6254.197)"/><path fill="url(#p)" d="M413.733355,13.7813701 C412.290407,40.2474586 408.337888,66.5533084 401.928399,92.191497 C395.492203,117.829686 386.599037,142.773507 375.409137,166.595657 C364.219236,190.417807 350.732602,213.09158 335.269709,234.243086 C319.78011,255.394591 302.314251,274.997123 283.165901,292.730204 C264.017552,310.463284 243.213417,326.326913 221.154091,340.054027 C199.068059,353.78114 175.726835,365.345032 151.531012,374.532049 C127.33519,383.719067 102.284769,390.555917 76.8871668,394.909068 C51.4361526,399.262219 25.6646639,401.13167 -1.36424205e-12,400.597541 C25.6646639,400.036706 51.2225029,397.045584 76.2195117,391.624175 C101.21652,386.229473 125.625993,378.404484 148.993923,368.336154 C172.388559,358.267823 194.741654,345.956152 215.652613,331.668203 C236.590278,317.380254 256.112515,301.089321 273.845435,283.142589 C291.605062,265.195857 307.60208,245.566619 321.542719,224.682178 C335.510065,203.77103 347.421033,181.577973 357.061973,158.476897 C366.702913,135.375821 374.100532,111.420138 379.121299,87.0104464 C384.142066,62.6007543 386.759274,37.7637591 387.026336,12.9267639 C387.106455,5.55578462 393.222176,-0.0792755878 400.593089,0 C407.964002,0.0809630911 413.812661,5.82284909 413.733355,13.2205348 C413.733355,13.4074799 413.733355,13.5677186 413.705836,13.7546637 L413.733355,13.7813701 Z" transform="rotate(40 -2160.91 2228.971)"/><path fill="url(#q)" d="M496.480026,16.5376442 C494.748488,48.2969503 490.005466,79.8639701 482.314079,110.629796 C474.590644,141.395623 463.918844,171.328208 450.490964,199.914788 C437.063084,228.501369 420.879123,255.709896 402.323651,281.091703 C383.736132,306.47351 362.777101,329.996548 339.799082,351.276244 C316.821062,372.555941 291.856101,391.592296 265.384909,408.064832 C238.881671,424.537368 210.872202,438.414038 181.837215,449.438459 C152.802228,460.46288 122.741722,468.667101 92.2646002,473.890882 C61.7233831,479.114662 30.7975967,481.358004 -3.63797881e-12,480.717049 C30.7975967,480.044047 61.4670035,476.4547 91.463414,469.94901 C121.459825,463.475367 150.751191,454.085381 178.792707,442.003384 C206.866271,429.921388 233.689984,415.147382 258.783135,398.001843 C283.908334,380.856305 307.335018,361.307186 328.614523,339.771107 C349.926075,318.235029 369.122496,294.679943 385.851263,269.618614 C402.612078,244.525237 416.905239,217.893568 428.474368,190.172277 C440.043496,162.450985 448.920639,133.704166 454.945559,104.412536 C460.970479,75.1209052 464.111129,45.3165109 464.431603,15.5121166 C464.527746,6.66694154 471.866611,-0.0951307054 480.711706,0 C489.556802,0.0971557093 496.575193,6.9874189 496.480026,15.8646417 C496.480026,16.0889759 496.480026,16.2812623 496.447003,16.5055964 L496.480026,16.5376442 Z" transform="rotate(-20 5881.044 -1673.951)"/><path fill="url(#r)" d="M661.973369,22.0501922 C659.664651,64.3959338 653.340621,106.485293 643.085438,147.506395 C632.787525,188.527497 618.558459,228.437611 600.654618,266.553051 C582.750778,304.668491 561.172164,340.946528 536.431534,374.788937 C511.648175,408.631346 483.702802,439.995397 453.065442,468.368326 C422.428083,496.741255 389.141468,522.123061 353.846546,544.086443 C318.508894,566.049825 281.162936,584.552051 242.44962,599.251279 C203.736304,613.950507 163.65563,624.889467 123.019467,631.854509 C82.2978441,638.81955 41.0634622,641.810672 0,640.956066 C41.0634622,640.058729 81.9560047,635.272934 121.951219,626.59868 C161.946433,617.967157 201.001588,605.447174 238.390276,589.337846 C275.821695,573.228517 311.586646,553.529842 345.04418,530.669124 C378.544445,507.808406 409.780024,481.742914 438.152697,453.028143 C466.5681,424.313372 492.163328,392.906591 514.468351,359.491485 C536.816104,326.033649 555.873652,290.524757 571.299157,253.563036 C586.724661,216.601314 598.560852,178.272222 606.594079,139.216714 C614.627305,100.161207 618.814838,60.4220145 619.242138,20.6828222 C619.370328,8.88925539 629.155481,-0.126840941 640.948942,-1.21446858e-14 C652.742402,0.129540946 662.100257,9.31655854 661.973369,21.1528556 C661.973369,21.4519678 661.973369,21.7083497 661.929337,22.0074619 L661.973369,22.0501922 Z" transform="rotate(-30 4028.607 -774.927)"/><path fill="url(#s)" d="M827.466711,27.5627403 C824.580814,80.4949172 816.675777,133.106617 803.856798,184.382994 C790.984407,235.659371 773.198074,285.547013 750.818273,333.191314 C728.438473,380.835614 701.465205,426.183161 670.539418,468.486172 C639.560219,510.789183 604.628502,549.994246 566.331803,585.460407 C528.035103,620.926568 486.426835,652.653827 442.308182,680.108054 C398.136118,707.562281 351.45367,730.690063 303.062025,749.064099 C254.67038,767.438134 204.569537,781.111834 153.774334,789.818136 C102.872305,798.524437 51.3293278,802.26334 0,801.195082 C51.3293278,800.073411 102.445006,794.091167 152.439023,783.24835 C202.433041,772.458946 251.251985,756.808968 297.987846,736.672307 C344.777118,716.535647 389.483307,691.912303 431.305226,663.336405 C473.180556,634.760508 512.225029,602.178643 547.690871,566.285179 C583.210125,530.391715 615.204159,491.133238 643.085438,449.364356 C671.02013,407.542061 694.842065,363.155947 714.123946,316.953794 C733.405827,270.751642 748.201065,222.840277 758.242598,174.020893 C768.284132,125.201509 773.518548,75.5275182 774.052672,25.8535277 C774.212909,11.1115692 786.444352,-0.158551176 801.186177,0 C815.928003,0.161926182 827.625321,11.6456982 827.466711,26.4410695 C827.466711,26.8149598 827.466711,27.1354371 827.411672,27.5093274 L827.466711,27.5627403 Z" transform="rotate(20 -4953.851 3584.444)"/><path fill="url(#t)" d="M992.960053,33.0752883 C989.496977,96.5939006 980.010932,159.72794 964.628158,221.259593 C949.181288,282.791246 927.837688,342.656416 900.981928,399.829577 C874.126167,457.002737 841.758245,511.419793 804.647302,562.183406 C767.472263,612.94702 725.554202,659.993096 679.598163,702.552489 C633.642124,745.111882 583.712201,783.184592 530.769819,816.129664 C477.763341,849.074737 421.744404,876.828076 363.67443,898.876918 C305.604456,920.92576 245.483445,937.334201 184.5292,947.781763 C123.446766,958.229325 61.5951933,962.716008 -5.45696821e-12,961.434098 C61.5951933,960.088094 122.934007,952.909401 182.926828,939.89802 C242.919649,926.950735 301.502382,908.170762 357.585415,884.006769 C413.732542,859.842776 467.379968,830.294764 517.566271,796.003686 C567.816668,761.712609 614.670035,722.614371 657.229045,679.542215 C699.85215,636.470058 738.244991,589.359886 771.702526,539.237227 C805.224156,489.050473 833.810479,435.787136 856.948735,380.344553 C880.086992,324.90197 897.841278,267.408332 909.891118,208.825071 C921.940958,150.24181 928.222258,90.6330218 928.863207,31.0242332 C929.055491,13.3338831 943.733222,-0.190261411 961.423413,0 C979.113604,0.194311419 993.150386,13.9748378 992.960053,31.7292834 C992.960053,32.1779517 992.960053,32.5625246 992.894006,33.0111929 L992.960053,33.0752883 Z" transform="rotate(60 -1190.93 1758.225)"/><path fill="url(#u)" d="M1158.4534,38.5878364 C1154.41314,112.692884 1143.34609,186.349263 1125.39952,258.136192 C1107.37817,329.92312 1082.4773,399.765819 1051.14558,466.467839 C1019.81386,533.16986 982.051286,596.656425 938.755185,655.88064 C895.384307,715.104856 846.479903,769.991945 792.864524,819.64457 C739.249145,869.297196 680.997568,913.715357 619.231455,952.151275 C557.390565,990.587193 492.035138,1022.96609 424.286835,1048.68974 C356.538531,1074.41339 286.397352,1093.55657 215.284067,1105.74539 C144.021227,1117.93421 71.8610589,1123.16868 0,1121.67311 C71.8610589,1120.10278 143.423008,1111.72763 213.414633,1096.54769 C283.406257,1081.44252 351.752779,1059.53256 417.182984,1031.34123 C482.687966,1003.14991 545.27663,968.677224 603.827316,928.670967 C662.452779,888.664711 717.115041,843.0501 766.767219,792.79925 C816.494175,742.548401 861.285823,687.586534 900.319614,629.110098 C939.428182,570.558885 972.778892,508.418326 999.773525,443.735312 C1026.76816,379.052299 1047.48149,311.976388 1061.53964,243.62925 C1075.59778,175.282112 1082.92597,105.738525 1083.67374,36.1949388 C1083.89807,15.5561969 1101.02209,-0.221971646 1121.66065,-2.12532001e-14 C1142.2992,0.226696655 1158.67545,16.3039774 1158.4534,37.0174973 C1158.4534,37.5409437 1158.4534,37.989612 1158.37634,38.5130583 L1158.4534,38.5878364 Z" transform="rotate(10 -10454.868 6254.202)"/><path fill="url(#v)" d="M1381.86941,46.0297763 C1377.04996,134.426512 1363.84855,222.28805 1342.44085,307.9196 C1320.94396,393.55115 1291.24078,476.863512 1253.86652,556.429494 C1216.49225,635.995476 1171.44689,711.725878 1119.80083,782.371907 C1068.06557,853.017936 1009.7296,918.490392 945.77411,977.71888 C881.818623,1036.94737 812.332814,1089.93189 738.654665,1135.78045 C664.887317,1181.62901 586.927629,1220.25241 506.113581,1250.93704 C425.299534,1281.62168 341.631127,1304.45676 256.803137,1318.99629 C171.79675,1333.53581 85.7199774,1339.77978 -7.27595761e-12,1337.99579 C85.7199774,1336.1226 171.08316,1326.13225 254.573169,1308.02474 C338.063178,1290.00644 419.590815,1263.87098 497.639702,1230.24275 C575.777788,1196.61453 650.437123,1155.49355 720.279727,1107.7718 C790.211529,1060.05005 855.415799,1005.63833 914.643754,945.696249 C973.960908,885.754164 1027.39095,820.192508 1073.95268,750.438475 C1120.60362,680.595242 1160.38625,606.470431 1192.58699,529.312837 C1224.78773,452.155242 1249.49578,372.143263 1266.26514,290.614891 C1283.0345,209.086519 1291.77598,126.130955 1292.66796,43.1753913 C1292.93556,18.5563206 1313.36207,-0.264780463 1337.98092,0 C1362.59977,0.270416724 1382.13429,19.4483159 1381.86941,44.1565861 C1381.86941,44.7809828 1381.86941,45.31618 1381.77749,45.9405767 L1381.86941,46.0297763 Z" transform="rotate(-40 3088.095 -318.478)"/><path fill="url(#w)" d="M1489.44008,49.6129325 C1484.24546,144.890851 1470.0164,239.59191 1446.94224,331.889389 C1423.77193,424.186868 1391.75653,513.984624 1351.47289,599.744365 C1311.18925,685.504106 1262.63737,767.129689 1206.97095,843.275109 C1151.20839,919.420529 1088.3313,989.989644 1019.39724,1053.82873 C950.463186,1117.66782 875.568302,1174.77689 796.154728,1224.1945 C716.645012,1273.61211 632.616606,1315.24211 545.511644,1348.31538 C458.406683,1381.38864 368.225167,1406.0013 276.793801,1421.67264 C185.170149,1437.34399 92.39279,1444.07401 0,1442.15115 C92.39279,1440.13214 184.401011,1429.3641 274.390242,1409.84703 C364.379474,1390.4261 452.253573,1362.25614 536.378122,1326.01015 C620.598813,1289.76416 701.069953,1245.44215 776.349406,1194.00553 C851.725002,1142.56891 922.005053,1083.92156 985.843568,1019.31332 C1049.77822,954.705086 1107.36749,884.039829 1157.55379,808.855841 C1207.83623,733.57571 1250.71572,653.680704 1285.4231,570.51683 C1320.13049,487.352956 1346.76192,401.112499 1364.83668,313.237607 C1382.91144,225.362716 1392.33339,135.949533 1393.29481,46.5363499 C1393.58324,20.0008246 1415.59983,-0.285392116 1442.13512,-2.7325543e-14 C1468.67041,0.291467128 1489.72558,20.9622567 1489.44008,47.5939251 C1489.44008,48.2669276 1489.44008,48.8437868 1489.34101,49.5167893 L1489.44008,49.6129325 Z" transform="rotate(40 -2160.91 2228.978)"/><path fill="url(#x)" d="M1737.68009,57.8817546 C1731.61971,169.039326 1715.01913,279.523895 1688.09928,387.204287 C1661.06725,494.88468 1623.71595,599.648728 1576.71837,699.701759 C1529.72079,799.75479 1473.07693,894.984637 1408.13278,983.820961 C1343.07646,1072.65728 1269.71985,1154.98792 1189.29679,1229.46686 C1108.87372,1303.94579 1021.49635,1370.57304 928.847183,1428.22691 C836.085847,1485.88079 738.052707,1534.44913 636.430252,1573.03461 C534.807797,1611.62008 429.596028,1640.33485 322.926101,1658.61809 C216.031841,1676.90132 107.791588,1684.75301 0,1682.50967 C107.791588,1680.15416 215.134512,1667.59145 320.121949,1644.82154 C425.109386,1622.16379 527.629169,1589.29883 625.774476,1547.01185 C724.031949,1504.72486 817.914945,1453.01584 905.740974,1393.00645 C993.679168,1332.99707 1075.67256,1264.57515 1150.15083,1189.19888 C1224.74126,1113.8226 1291.92873,1031.3798 1350.47942,943.665148 C1409.14227,855.838328 1459.16834,762.627488 1499.66029,665.602968 C1540.15224,568.578448 1571.22224,467.964582 1592.30946,365.443875 C1613.39668,262.923168 1624.38895,158.607788 1625.51061,54.2924082 C1625.84711,23.3342954 1651.53314,-0.332957469 1682.49097,0 C1713.44881,0.340044983 1738.01317,24.4559662 1737.68009,55.526246 C1737.68009,56.3114155 1737.68009,56.984418 1737.56451,57.7695875 L1737.68009,57.8817546 Z" transform="rotate(25 -3845.222 3046.41)"/><path fill="url(#y)" d="M1985.92011,66.1505767 C1978.99395,193.187801 1960.02186,319.45588 1929.25632,442.519186 C1898.36258,565.582491 1855.67538,685.312832 1801.96386,799.659153 C1748.25233,914.005474 1683.51649,1022.83959 1609.2946,1124.36681 C1534.94453,1225.89404 1451.1084,1319.98619 1359.19633,1405.10498 C1267.28425,1490.22376 1167.4244,1566.36918 1061.53964,1632.25933 C955.526683,1698.14947 843.488808,1753.65615 727.348859,1797.75384 C611.208911,1841.85152 490.96689,1874.6684 369.058401,1895.56353 C246.893532,1916.45865 123.190387,1925.43202 0,1922.8682 C123.190387,1920.17619 245.868014,1905.8188 365.853656,1879.79604 C485.839298,1853.90147 603.004765,1816.34152 715.170829,1768.01354 C827.465084,1719.68555 934.759937,1660.58953 1035.13254,1592.00737 C1135.63334,1523.42522 1229.34007,1445.22874 1314.45809,1359.08443 C1399.7043,1272.94012 1476.48998,1178.71977 1543.40505,1078.47445 C1610.44831,978.100946 1667.62096,871.574272 1713.89747,760.689107 C1760.17398,649.803941 1795.68256,534.816665 1819.78224,417.650143 C1843.88192,300.483621 1856.44452,181.266044 1857.72641,62.0484665 C1858.11098,26.6677662 1887.46644,-0.380522822 1922.84683,1.09139364e-11 C1958.22721,0.388622837 1986.30077,27.9496756 1985.92011,63.4585669 C1985.92011,64.3559035 1985.92011,65.1250491 1985.78801,66.0223857 L1985.92011,66.1505767 Z" transform="rotate(8 -13196.99 7585.018)"/><path fill="url(#z)" d="M2206.02625,73.4822656 C2198.33245,214.599449 2177.25762,354.86224 2143.08222,491.565062 C2108.76443,628.267884 2061.34606,761.268338 2001.68152,888.288043 C1942.01697,1015.30775 1870.10624,1136.20431 1787.65809,1248.98413 C1705.06754,1361.76396 1611.93959,1466.28466 1509.84059,1560.83745 C1407.74159,1655.39023 1296.81394,1739.9751 1179.19361,1813.16807 C1061.43089,1886.36104 936.975484,1948.01971 807.963358,1997.00489 C678.951232,2045.99006 545.382386,2082.44415 409.962374,2105.65515 C274.257566,2128.86615 136.843988,2138.83406 0,2135.98609 C136.843988,2132.99571 273.118386,2117.04705 406.402436,2088.1401 C539.686487,2059.37555 669.837793,2017.65271 794.435596,1963.96837 C919.175798,1910.28403 1038.3625,1844.6382 1149.85973,1768.45486 C1261.49936,1692.27151 1365.59193,1605.40826 1460.14386,1509.71629 C1554.83819,1414.02431 1640.13429,1309.36121 1714.46578,1198.00537 C1788.93967,1086.50713 1852.44895,968.173754 1903.85444,844.998816 C1955.25993,721.823877 1994.70404,594.092178 2021.47477,463.9397 C2048.2455,333.787222 2062.20045,201.356363 2063.62442,68.9255048 C2064.05162,29.6234436 2096.66064,-0.422697434 2135.96235,-4.04721654e-14 C2175.26406,0.431695202 2206.44911,31.0474313 2206.02625,70.4918913 C2206.02625,71.4886828 2206.02625,72.3430754 2205.87952,73.3398668 L2206.02625,73.4822656 Z" transform="rotate(-60 2118.112 152.272)"/><path fill="url(#A)" d="M2399.65346,79.9319468 C2391.28436,233.43526 2368.35975,386.009189 2331.18471,534.710683 C2293.85478,683.412177 2242.27441,828.086339 2177.37299,966.25481 C2112.47157,1104.42328 2034.24909,1235.93117 1944.56431,1358.6099 C1854.72464,1481.28863 1753.42266,1594.98331 1642.36223,1697.83518 C1531.3018,1800.68705 1410.63782,1892.6961 1282.69373,1972.31336 C1154.59474,2051.93061 1019.21564,2119.00118 878.879872,2172.28589 C738.544101,2225.57059 593.251658,2265.22432 445.945568,2290.47259 C298.329685,2315.72087 148.855051,2326.56369 -7.27595761e-12,2323.46574 C148.855051,2320.21289 297.090517,2302.86439 442.073168,2271.42022 C587.055818,2240.13094 728.630757,2194.74601 864.164752,2136.34969 C999.853643,2077.95338 1129.50159,2006.54568 1250.78515,1923.67558 C1372.22361,1840.80547 1485.45259,1746.31806 1588.30353,1642.22702 C1691.30936,1538.13597 1784.09206,1424.28639 1864.94777,1303.15663 C1945.95838,1181.87198 2015.04199,1053.15225 2070.95944,919.166004 C2126.8769,785.179762 2169.78309,646.236803 2198.90354,504.660589 C2228.02398,363.084375 2243.20379,219.029803 2244.75275,74.9752303 C2245.21744,32.2235508 2280.68862,-0.459798409 2323.43991,0 C2366.19121,0.469585928 2400.11343,33.7725247 2399.65346,76.6791016 C2399.65346,77.7633833 2399.65346,78.6927677 2399.49385,79.7770494 L2399.65346,79.9319468 Z" transform="rotate(-30 4028.591 -774.92)"/><path fill="url(#B)" d="M2647.89347,88.2007689 C2638.6586,257.583735 2613.36249,425.941174 2572.34175,590.025581 C2531.1501,754.109988 2474.23384,913.750443 2402.61847,1066.2122 C2331.00311,1218.67397 2244.68865,1363.78611 2145.72614,1499.15575 C2046.5927,1634.52539 1934.81121,1759.98159 1812.26177,1873.4733 C1689.71233,1986.96502 1556.56587,2088.49225 1415.38618,2176.34577 C1274.03558,2264.1993 1124.65174,2338.2082 969.798479,2397.00512 C814.945215,2455.80203 654.622519,2499.55787 492.077868,2527.41803 C329.191377,2555.2782 164.253849,2567.24269 0,2563.82426 C164.253849,2560.23492 327.824019,2541.09174 487.804875,2506.39472 C647.785731,2471.86863 804.006353,2421.7887 953.561106,2357.35138 C1103.28678,2292.91407 1246.34658,2214.11937 1380.17672,2122.6765 C1514.17778,2031.23362 1639.12009,1926.97166 1752.61079,1812.11257 C1866.2724,1697.25349 1968.65331,1571.62636 2057.8734,1437.96594 C2147.26442,1304.13459 2223.49461,1162.09903 2285.19663,1014.25214 C2346.89865,866.405254 2394.24341,713.088886 2426.37631,556.866857 C2458.50922,400.644828 2475.25935,241.688058 2476.96855,82.7312886 C2477.48131,35.5570216 2516.62193,-0.507363762 2563.79577,-4.85787432e-14 C2610.96961,0.518163783 2648.40103,37.2662341 2647.89347,84.6114225 C2647.89347,85.8078713 2647.89347,86.8333988 2647.71735,88.0298476 L2647.89347,88.2007689 Z" transform="rotate(10 -10454.857 6254.21)"/></g><ellipse cx="4205.355" cy="4298.672" fill="url(#a)" fill-opacity=".1" rx="3204.745" ry="3204.774"/></g></g></svg>