<svg xmlns="http://www.w3.org/2000/svg" width="3120" height="1932" viewBox="0 0 3120 1932"><defs><linearGradient id="a" x1="50%" x2="50%" y1="3.125%" y2="97.125%"><stop offset="0%" stop-color="red"/><stop offset="100%" stop-color="#E0F"/></linearGradient><linearGradient id="b" x1="50%" x2="50%" y1="3.125%" y2="97.125%"><stop offset="0%" stop-color="#FF0019"/><stop offset="100%" stop-color="#CE00F3"/></linearGradient><linearGradient id="c" x1="50%" x2="50%" y1="3.125%" y2="97.125%"><stop offset="0%" stop-color="#FF0031"/><stop offset="100%" stop-color="#B000E6"/></linearGradient><linearGradient id="d" x1="50%" x2="50%" y1="3.125%" y2="97.125%"><stop offset="0%" stop-color="#FF004A"/><stop offset="100%" stop-color="#9400DA"/></linearGradient><linearGradient id="e" x1="50%" x2="50%" y1="3.125%" y2="97.125%"><stop offset="0%" stop-color="#FF0063"/><stop offset="100%" stop-color="#7A00CE"/></linearGradient><linearGradient id="f" x1="50%" x2="50%" y1="3.125%" y2="97.125%"><stop offset="0%" stop-color="#FF007C"/><stop offset="100%" stop-color="#6200C1"/></linearGradient><linearGradient id="g" x1="50%" x2="50%" y1="3.125%" y2="97.125%"><stop offset="0%" stop-color="#FF0094"/><stop offset="100%" stop-color="#4D00B5"/></linearGradient><linearGradient id="h" x1="50%" x2="50%" y1="3.125%" y2="97.125%"><stop offset="0%" stop-color="#FF00AD"/><stop offset="100%" stop-color="#3900A8"/></linearGradient><linearGradient id="i" x1="50%" x2="50%" y1="3.125%" y2="97.125%"><stop offset="0%" stop-color="#FF00C6"/><stop offset="100%" stop-color="#28009C"/></linearGradient><linearGradient id="j" x1="50%" x2="50%" y1="3.125%" y2="97.125%"><stop offset="0%" stop-color="#FF00DF"/><stop offset="100%" stop-color="#180090"/></linearGradient><linearGradient id="k" x1="50%" x2="50%" y1="3.125%" y2="97.125%"><stop offset="0%" stop-color="#FF00F7"/><stop offset="100%" stop-color="#0B0083"/></linearGradient><linearGradient id="l" x1="50%" x2="50%" y1="3.125%" y2="97.125%"><stop offset="0%" stop-color="#E0F"/><stop offset="100%" stop-color="#007"/></linearGradient></defs><g fill="none" fill-rule="evenodd"><rect width="3120" height="1932" fill="red" fill-rule="nonzero"/><g fill-rule="nonzero"><rect width="3120" height="1932" fill="url(#a)"/><rect width="2860" height="1932" x="260" fill="url(#b)"/><rect width="2600" height="1932" x="520" fill="url(#c)"/><rect width="2340" height="1932" x="780" fill="url(#d)"/><rect width="2080" height="1932" x="1040" fill="url(#e)"/><rect width="1820" height="1932" x="1300" fill="url(#f)"/><rect width="1560" height="1932" x="1560" fill="url(#g)"/><rect width="1300" height="1932" x="1820" fill="url(#h)"/><rect width="1040" height="1932" x="2080" fill="url(#i)"/><rect width="780" height="1932" x="2340" fill="url(#j)"/><rect width="520" height="1932" x="2600" fill="url(#k)"/><rect width="260" height="1932" x="2860" fill="url(#l)"/></g></g></svg>