<svg xmlns="http://www.w3.org/2000/svg" width="3200" height="3168" viewBox="0 0 3200 3168"><g fill="none" fill-rule="evenodd"><rect width="3168" height="3114" fill="#C57" fill-rule="nonzero"/><g fill-rule="nonzero" transform="translate(4)"><rect width="348.079" height="571.279" fill="#C57"/><rect width="348.079" height="571.279" x="316.436" fill="#CE5776"/><rect width="348.079" height="571.279" y="519.344" fill="#D05A76"/><rect width="348.079" height="571.279" x="632.871" fill="#D15C75"/><rect width="348.079" height="571.279" x="316.436" y="519.344" fill="#D35F74"/><rect width="348.079" height="571.279" y="1038.689" fill="#D46174"/><rect width="348.079" height="571.279" x="949.307" fill="#D66473"/><rect width="348.079" height="571.279" x="632.871" y="519.344" fill="#D76673"/><rect width="348.079" height="571.279" x="316.436" y="1038.689" fill="#D96972"/><rect width="348.079" height="571.279" y="1558.033" fill="#DA6C72"/><rect width="348.079" height="571.279" x="1265.743" fill="#DB6E71"/><rect width="348.079" height="571.279" x="949.307" y="519.344" fill="#DC7171"/><rect width="348.079" height="571.279" x="632.871" y="1038.689" fill="#DD7471"/><rect width="348.079" height="571.279" x="316.436" y="1558.033" fill="#DE7671"/><rect width="348.079" height="571.279" y="2077.377" fill="#DF7971"/><rect width="348.079" height="571.279" x="1582.178" fill="#E07C71"/><rect width="348.079" height="571.279" x="1265.743" y="519.344" fill="#E17E71"/><rect width="348.079" height="571.279" x="949.307" y="1038.689" fill="#E28171"/><rect width="348.079" height="571.279" x="632.871" y="1558.033" fill="#E38471"/><rect width="348.079" height="571.279" x="316.436" y="2077.377" fill="#E38771"/><rect width="348.079" height="571.279" y="2596.721" fill="#E48972"/><rect width="348.079" height="571.279" x="1898.614" fill="#E58C72"/><rect width="348.079" height="571.279" x="1582.178" y="519.344" fill="#E58F73"/><rect width="348.079" height="571.279" x="1265.743" y="1038.689" fill="#E69173"/><rect width="348.079" height="571.279" x="949.307" y="1558.033" fill="#E69474"/><rect width="348.079" height="571.279" x="632.871" y="2077.377" fill="#E79775"/><rect width="348.079" height="571.279" x="316.436" y="2596.721" fill="#E79A75"/><rect width="348.079" height="571.279" x="2215.05" fill="#E89C76"/><rect width="348.079" height="571.279" x="1898.614" y="519.344" fill="#E89F77"/><rect width="348.079" height="571.279" x="1582.178" y="1038.689" fill="#E8A278"/><rect width="348.079" height="571.279" x="1265.743" y="1558.033" fill="#E9A47A"/><rect width="348.079" height="571.279" x="949.307" y="2077.377" fill="#E9A77B"/><rect width="348.079" height="571.279" x="632.871" y="2596.721" fill="#E9AA7C"/><rect width="348.079" height="571.279" x="2531.485" fill="#E9AC7E"/><rect width="348.079" height="571.279" x="2215.05" y="519.344" fill="#EAAF7F"/><rect width="348.079" height="571.279" x="1898.614" y="1038.689" fill="#EAB281"/><rect width="348.079" height="571.279" x="1582.178" y="1558.033" fill="#EAB482"/><rect width="348.079" height="571.279" x="1265.743" y="2077.377" fill="#EAB784"/><rect width="348.079" height="571.279" x="949.307" y="2596.721" fill="#EABA86"/><rect width="348.079" height="571.279" x="2847.921" fill="#EBBC88"/><rect width="348.079" height="571.279" x="2531.485" y="519.344" fill="#EBBF8A"/><rect width="348.079" height="571.279" x="2215.05" y="1038.689" fill="#EBC18C"/><rect width="348.079" height="571.279" x="1898.614" y="1558.033" fill="#EBC48E"/><rect width="348.079" height="571.279" x="1582.178" y="2077.377" fill="#EBC790"/><rect width="348.079" height="571.279" x="1265.743" y="2596.721" fill="#EBC992"/><rect width="348.079" height="571.279" x="2847.921" y="519.344" fill="#EBCC94"/><rect width="348.079" height="571.279" x="2531.485" y="1038.689" fill="#EBCE97"/><rect width="348.079" height="571.279" x="2215.05" y="1558.033" fill="#EBD199"/><rect width="348.079" height="571.279" x="1898.614" y="2077.377" fill="#ECD39C"/><rect width="348.079" height="571.279" x="1582.178" y="2596.721" fill="#ECD69E"/><rect width="348.079" height="571.279" x="2847.921" y="1038.689" fill="#ECD8A1"/><rect width="348.079" height="571.279" x="2531.485" y="1558.033" fill="#ECDBA4"/><rect width="348.079" height="571.279" x="2215.05" y="2077.377" fill="#ECDDA6"/><rect width="348.079" height="571.279" x="1898.614" y="2596.721" fill="#ECE0A9"/><rect width="348.079" height="571.279" x="2847.921" y="1558.033" fill="#EDE2AC"/><rect width="348.079" height="571.279" x="2531.485" y="2077.377" fill="#EDE4AF"/><rect width="348.079" height="571.279" x="2215.05" y="2596.721" fill="#EDE7B2"/><rect width="348.079" height="571.279" x="2847.921" y="2077.377" fill="#EDE9B5"/><rect width="348.079" height="571.279" x="2531.485" y="2596.721" fill="#EEECB8"/><rect width="348.079" height="571.279" x="2847.921" y="2596.721" fill="#EEB"/></g></g></svg>