<svg xmlns="http://www.w3.org/2000/svg" width="875" height="128" viewBox="0 0 875 128"><g fill-rule="evenodd"><path d="M128,0 L128,128 L0,128 L0,0 L128,0 Z M28.5691481,9.44127259 L9.44127259,99.4308519 L99.4308519,118.558727 L118.558727,28.5691481 L28.5691481,9.44127259 Z"/><rect width="56" height="56" x="36" y="36" transform="rotate(45 64 64)"/><g transform="translate(176 17.072)"><path fill-rule="nonzero" d="M5.68434189e-14,92.928 L50.16,92.928 C72.996,92.928 81.444,82.104 81.444,67.98 C81.444,54.912 75.372,47.52 66.924,44.616 C73.26,40.656 77.22,33.264 77.22,24.024 C77.22,11.088 69.96,0 48.18,0 L5.68434189e-14,0 L5.68434189e-14,92.928 Z M14.256,38.808 L14.256,12.672 L48.048,12.672 C57.288,12.672 62.568,16.896 62.568,25.74 C62.568,35.376 57.42,38.808 48.18,38.808 L14.256,38.808 Z M14.256,80.256 L14.256,51.48 L48.048,51.48 C61.776,51.48 66.66,56.496 66.66,66.66 C66.66,76.824 60.456,80.256 48.18,80.256 L14.256,80.256 Z"/><polygon fill-rule="nonzero" points="93.812 92.928 107.54 92.928 107.54 0 93.812 0"/><path fill-rule="nonzero" d="M151.588 94.512C171.916 94.512 185.644 80.652 185.644 59.532 185.644 38.28 171.916 24.552 151.588 24.552 131.26 24.552 117.532 38.412 117.532 59.532 117.532 80.652 131.26 94.512 151.588 94.512ZM151.456 81.576C139.18 81.576 131.656 73.788 131.656 59.532 131.656 45.408 139.312 37.488 151.456 37.488 163.996 37.488 171.652 45.276 171.652 59.532 171.652 73.788 163.996 81.576 151.456 81.576ZM226.26 94.512C243.42 94.512 255.828 85.536 258.204 70.752L243.816 70.752C241.968 78.144 234.972 81.576 226.392 81.576 214.116 81.576 206.592 73.92 206.592 59.664 206.592 45.144 213.72 37.488 226.128 37.488 235.104 37.488 243.156 41.052 244.74 49.368L258.864 49.368C256.884 33.528 243.948 24.552 226.92 24.552 206.064 24.552 192.468 38.412 192.468 59.664 192.468 80.652 206.064 94.512 226.26 94.512Z"/><polygon fill-rule="nonzero" points="268.856 92.928 282.584 92.928 282.584 65.208 298.16 65.208 318.752 92.928 334.724 92.928 308.456 57.288 331.688 26.136 315.98 26.136 296.84 52.272 282.584 52.272 282.584 0 268.856 0"/><path fill-rule="nonzero" d="M365.308 94.512C384.58 94.512 396.592 86.46 396.592 72.468 396.592 58.476 385.372 54.78 373.228 53.724L359.368 52.536C353.164 52.008 349.072 50.424 349.072 44.484 349.072 38.412 354.616 36.036 364.912 36.036 379.168 36.036 381.544 42.24 381.94 46.992L395.668 46.992C395.14 37.224 388.144 24.552 364.912 24.552 345.772 24.552 335.608 33.792 335.608 46.068 335.608 59.136 346.96 64.152 357.52 64.812L369.136 65.604C377.056 66.132 382.6 66.924 382.6 73.92 382.6 79.86 378.244 82.896 365.572 82.896 348.808 82.896 347.488 75.636 347.62 71.544L334.024 71.544C333.364 81.84 340.36 94.512 365.308 94.512ZM430.872 92.928 447.108 92.928 447.108 81.048 436.02 81.048C428.892 81.048 426.516 78.672 426.516 71.412L426.516 38.016 447.108 38.016 447.108 26.136 426.516 26.136 426.516 8.712 412.788 8.712 412.788 26.136 397.344 26.136 397.344 38.016 412.788 38.016 412.788 75.108C412.788 86.328 419.124 92.928 430.872 92.928ZM486.008 94.512C506.072 94.512 516.896 84.348 516.896 64.152L516.896 26.136 503.168 26.136 503.168 63.492C503.168 77.22 496.832 81.576 486.008 81.576 475.184 81.576 468.848 77.484 468.848 63.492L468.848 26.136 455.12 26.136 455.12 64.152C455.12 83.688 465.02 94.512 486.008 94.512ZM557.512 94.512C568.732 94.512 575.86 89.76 579.82 84.084L579.82 92.928 593.548 92.928 593.548 0 579.82 0 579.82 34.452C574.804 28.116 566.752 24.552 557.38 24.552 540.88 24.552 525.172 35.904 525.172 59.928 525.172 83.028 540.088 94.512 557.512 94.512ZM559.624 81.708C547.216 81.708 539.032 73.128 539.032 59.664 539.032 44.88 547.876 37.356 559.36 37.356 569.656 37.356 580.084 43.428 580.084 60.192 580.084 75.504 570.184 81.708 559.624 81.708ZM606.048 14.52 621.096 14.52 621.096 0 606.048 0 606.048 14.52ZM606.708 92.928 620.436 92.928 620.436 26.136 606.708 26.136 606.708 92.928ZM664.484 94.512C684.812 94.512 698.54 80.652 698.54 59.532 698.54 38.28 684.812 24.552 664.484 24.552 644.156 24.552 630.428 38.412 630.428 59.532 630.428 80.652 644.156 94.512 664.484 94.512ZM664.352 81.576C652.076 81.576 644.552 73.788 644.552 59.532 644.552 45.408 652.208 37.488 664.352 37.488 676.892 37.488 684.548 45.276 684.548 59.532 684.548 73.788 676.892 81.576 664.352 81.576Z"/></g></g></svg>