<svg xmlns="http://www.w3.org/2000/svg" width="3120" height="4050" viewBox="0 0 3120 4050"><g fill="none" fill-rule="evenodd" transform="translate(-2324)"><rect width="8100" height="4050" fill="#000" fill-rule="nonzero"/><g fill-rule="nonzero" transform="translate(0 506)"><polygon fill="#222" points="4050 0 0 506.286 0 3544 8100 3544 8100 506.286"/><polygon fill="#444" points="4050 506.286 0 1518.857 0 3544 8100 3544 8100 1518.857"/><polygon fill="#666" points="4050 1012.571 0 2531.429 0 3544 8100 3544 8100 2531.429"/><polygon fill="#888" points="8100 3544 4050 1518.857 0 3544"/><polygon fill="#AAA" points="6480 3544 4050 2025.143 1620 3544"/><polygon fill="#CCC" points="2699.831 3544 5400.169 3544 4050 2531.429"/><polygon fill="#EEE" points="3463.256 3544 4628.644 3544 4050 3037.714"/></g></g></svg>