<svg xmlns="http://www.w3.org/2000/svg" width="2296" height="3228" viewBox="0 0 2296 3228"><defs><radialGradient id="a" cx="50%" cy="50%" r=".063%" fx="50%" fy="50%"><stop offset="0%" stop-color="#FFF"/><stop offset="100%" stop-color="#0EF"/></radialGradient><radialGradient id="b" cx="50%" cy="50%" r=".058%" fx="50%" fy="50%"><stop offset="0%" stop-color="#FFF"/><stop offset="100%" stop-color="#0FF"/></radialGradient></defs><g fill="none" fill-rule="evenodd" transform="translate(-1618 -1546)"><rect width="4056" height="4056" x="1014" y="1014" fill="#FFF" fill-rule="nonzero"/><rect width="4056" height="4056" x="1014" y="1014" fill="url(#a)" fill-rule="nonzero"/><path fill="url(#b)" fill-rule="nonzero" d="M6077.4708,3240.74805 C6086.08998,3106.39031 6086.08998,2973.55361 6077.97781,2842.74494 L3047.0701,3041.49299 C3047.0701,3041.49299 3047.0701,3040.98598 3047.0701,3040.98598 L6026.26276,2448.29091 C6000.40523,2316.97524 5965.92853,2188.70163 5923.33966,2063.97709 L3046.56309,3040.47897 C3046.56309,3040.47897 3046.56309,3039.97196 3046.56309,3039.97196 L5770.72956,1696.3946 C5711.91636,1577.24718 5644.991,1462.15583 5571.4745,1352.13459 L3046.05608,3039.46495 C3046.05608,3039.46495 3046.05608,3038.95794 3045.54907,3038.95794 L5329.12357,1036.26716 C5241.41078,936.38613 5147.61387,842.58922 5047.73284,754.876435 L3045.04206,3038.45093 C3045.04206,3038.45093 3044.53505,3038.45093 3044.53505,3037.94392 L4732.37242,512.01849 C4622.35118,438.501993 4507.25983,372.083641 4387.6054,312.763433 L3044.02804,3037.43691 C3044.02804,3037.43691 3043.52103,3037.43691 3043.52103,3037.43691 L4020.02291,160.660337 C3895.29837,118.57848 3767.02476,84.1017779 3635.70909,58.2442514 L3043.01402,3036.9299 C3043.01402,3036.9299 3042.50701,3036.9299 3042.50701,3036.9299 L3241.25506,6.52919849 C3106.89732,-2.08997699 2974.06062,-2.08997699 2843.25195,6.02218817 L3041.49299,3036.9299 C3041.49299,3036.9299 3040.98598,3036.9299 3040.98598,3036.9299 L2448.29091,57.7372411 C2316.97524,83.5947675 2188.70163,118.071469 2063.97709,160.660337 L3040.47897,3037.43691 C3040.47897,3037.43691 3039.97196,3037.43691 3039.97196,3037.43691 L1696.3946,313.270444 C1577.24718,372.083641 1462.15583,439.009004 1352.13459,512.5255 L3039.46495,3037.94392 C3039.46495,3037.94392 3038.95794,3037.94392 3038.95794,3038.45093 L1036.26716,754.876435 C936.38613,842.08221 842.58922,936.38613 754.876435,1036.26716 L3038.45093,3038.95794 C3038.45093,3038.95794 3038.45093,3039.46495 3037.94392,3039.46495 L512.01849,1351.62758 C438.501993,1461.64882 372.083641,1576.74017 312.763433,1696.3946 L3037.43691,3039.97196 C3037.43691,3039.97196 3037.43691,3040.47897 3037.43691,3040.47897 L160.660337,2063.97709 C118.57848,2188.70163 84.1017779,2316.97524 58.2442514,2448.29091 L3036.9299,3040.98598 C3036.9299,3040.98598 3036.9299,3041.49299 3036.9299,3041.49299 L6.52919849,2842.74494 C-2.08997699,2977.10268 -2.08997699,3109.93938 6.02218817,3240.74805 L3036.9299,3042.50701 C3036.9299,3042.50701 3036.9299,3043.01402 3036.9299,3043.01402 L57.7372411,3635.70909 C83.5947675,3767.02476 118.071469,3895.29837 160.660337,4020.02291 L3037.43691,3043.52103 C3037.43691,3043.52103 3037.43691,3044.02804 3037.43691,3044.02804 L313.270444,4387.6054 C372.083641,4506.75282 439.009004,4621.84417 512.5255,4731.86541 L3037.94392,3044.53505 C3037.94392,3044.53505 3037.94392,3045.04206 3038.45093,3045.04206 L754.876435,5047.73284 C842.58922,5147.61387 936.38613,5241.41078 1036.26716,5329.12357 L3038.95794,3045.54907 C3038.95794,3045.54907 3039.46495,3045.54907 3039.46495,3046.05608 L1351.62758,5571.98151 C1461.64882,5645.49801 1576.74017,5711.91636 1696.3946,5771.23657 L3039.97196,3046.56309 C3039.97196,3046.56309 3040.47897,3046.56309 3040.47897,3046.56309 L2063.97709,5923.33966 C2188.70163,5965.42152 2316.97524,5999.89822 2448.29091,6025.75575 L3040.98598,3047.0701 C3040.98598,3047.0701 3041.49299,3047.0701 3041.49299,3047.0701 L2842.74494,6077.4708 C2977.10268,6086.08998 3109.93938,6086.08998 3240.74805,6077.97781 L3042.50701,3047.0701 C3042.50701,3047.0701 3043.01402,3047.0701 3043.01402,3047.0701 L3635.70909,6026.26276 C3767.02476,6000.40523 3895.29837,5965.92853 4020.02291,5923.33966 L3043.52103,3046.56309 C3043.52103,3046.56309 3044.02804,3046.56309 3044.02804,3046.56309 L4387.6054,5770.72956 C4506.75282,5711.91636 4621.84417,5644.991 4731.86541,5571.4745 L3044.53505,3046.05608 C3044.53505,3046.05608 3045.04206,3046.05608 3045.04206,3045.54907 L5047.73284,5329.12357 C5147.61387,5241.41078 5241.41078,5147.61387 5329.12357,5047.73284 L3045.54907,3045.04206 C3045.54907,3045.04206 3045.54907,3044.53505 3046.05608,3044.53505 L5571.98151,4732.37242 C5645.49801,4622.35118 5711.91636,4507.25983 5771.23657,4387.6054 L3046.56309,3044.02804 C3046.56309,3044.02804 3046.56309,3043.52103 3046.56309,3043.52103 L5923.33966,4020.02291 C5965.42152,3895.29837 5999.89822,3767.02476 6025.75575,3635.70909 L3047.0701,3043.01402 C3047.0701,3043.01402 3047.0701,3042.50701 3047.0701,3042.50701 L6077.4708,3240.74805 Z"/></g></svg>