<svg xmlns="http://www.w3.org/2000/svg" width="2986" height="3868" viewBox="0 0 2986 3868"><g fill="none" fill-rule="evenodd" transform="translate(-2732 -2254)"><rect width="5490" height="5490" x="1790" y="1378" fill="#303" fill-rule="nonzero"/><g stroke="#404"><path d="M7068.75193,2950.12658 L8908,3168.98481 M8153.08475,7416.48101 L6807.96302,6435.39241 L5359.89831,5907.11392 L3911.83359,5070.10127 L2065.72265,5488.60759 L3815.75347,6620.63291 L2659.36055,7413.05063 L2065.72265,5488.60759 L439.223421,4761.36709 L2491.22034,3999.82278 L1578.45917,2950.12658 L2659.36055,1924.44304 L1317.67026,946.78481"/><path d="M1578.45917,2950.12658 L3417.70724,3169.67089 L4467.72573,3999.82278 L5929.51618,4761.36709 L3908.40216,5066.67089 L2487.78891,3996.39241 M4330.46841,7588 L3815.75347,6620.63291"/><polyline points="5359.898 5907.114 5757.945 7155.772 6807.963 6435.392 7556.015 5488.608 5929.516 4761.367 5359.898 5907.114 3815.753 6620.633 3911.834 5070.101 4467.726 3999.823 5490.293 3224.557 7068.752 2950.127 5754.513 1663.734 4330.468 2099.392 3815.753 1132.025 2659.361 1924.443 3417.707 3169.671 2491.22 3999.823 2065.723 5488.608 1317.67 6435.392 2662.792 7416.481"/><path d="M5359.89831,418.506329 L5761.37596,1670.59494 L6807.96302,946.78481 M5929.51618,4761.36709 L5490.29276,3224.55696 L3417.70724,3169.67089 L4330.46841,2099.39241 M7981.5131,3999.82278 L5490.29276,3224.55696 M4467.72573,3999.82278 L2491.22034,3999.82278"/><path d="M267.651772,1667.16456 L2659.36055,1924.44304 L4330.46841,2099.39241 L5490.29276,3224.55696 L5754.5131,1663.73418 L8153.08475,1927.87342 L7068.75193,2950.12658 L7981.5131,3999.82278 L5929.51618,4761.36709 L6807.96302,6435.39241 M3815.75347,1132.02532 L5754.5131,1663.73418 M5757.94453,7155.77215 L3815.75347,6620.63291 M2065.72265,0 L2662.79199,1927.87342 M2491.22034,3999.82278 L0,3224.55696"/></g><g fill="#505" fill-rule="nonzero" transform="translate(2034 1634)"><circle cx="3457.754" cy="1591.672" r="34.303"/><circle cx="3327.402" cy="4274.189" r="34.303"/><circle cx="1879.811" cy="3437.189" r="34.303"/><circle cx="1385.846" cy="1536.787" r="34.303"/><circle cx="2435.521" cy="2366.926" r="34.303"/></g></g></svg>